<?xml version="1.0" encoding="utf-8"?>
<!-- Generator: Adobe Illustrator 21.0.0, SVG Export Plug-In . SVG Version: 6.00 Build 0)  -->
<svg version="1.1" id="Layer_1" xmlns="http://www.w3.org/2000/svg" xmlns:xlink="http://www.w3.org/1999/xlink" x="0px" y="0px"
	 viewBox="0 0 316 177" style="enable-background:new 0 0 316 177;" xml:space="preserve">
<style type="text/css">
	.st0{fill:#FFFFFF;}
</style>
<g>
	<path class="st0" d="M47.2,173.7c-4.5-4.3-12.6-10.1-24.4-12.3c-6.8-1.2-11.7-3.7-15-7.6c-3.3-3.9-4.9-9.1-4.9-16V58.3h44.4
		 M48.4,57.1H1.6v80.7c0,14.1,6.8,22.2,20.9,24.8c13.3,2.4,21.7,9.4,25.9,14V57.1z"/>
	<path class="st0" d="M97.2,102.2l-46.8,30.5v44c4.2-4.6,12.5-11.6,25.9-14c14.1-2.6,20.9-10.7,20.9-24.8L97.2,102.2z M88.8,123.2
		c-1.3,0.2-2.4-0.1-3.3-0.9c-0.1-0.1-0.3-0.2-0.5-0.4c0,0,0,0,0,0c-0.1-0.1-0.3-0.2-0.4-0.2c-0.2,0.7-0.4,1.5-0.8,2.3c0,0,0,0,0,0
		c0,0,0,0.1-0.1,0.1c-0.2,0.4-0.4,0.7-0.7,1.1c0,0,0,0,0,0c-0.2,0.4-0.5,0.8-0.7,1.1c-0.6,0.8-1.3,1.5-1.7,1.8l0,0
		c-0.1,0-0.1,0.1-0.1,0.1c0,0,0,0,0,0l-0.2,0.1c-0.1,0.1-0.2,0.2-0.2,0.2c-0.3,0.5-0.7,1.7,0.2,2.6c0.1,0.1,0.1,0.1,0.2,0.1
		c0.4,0.4,1.4,1.5,1.1,3.1c0,0.1-0.1,0.2-0.1,0.3c-0.1,0.1-0.2,0.2-0.3,0.3c-0.6,0.7-1.8,2.1-2.2,3.6c0,0.1-0.1,0.2-0.2,0.3l0,0
		c-0.1,0.2-0.2,0.3-0.3,0.5c-0.5,0.8-1,1.4-1.7,2c-0.2,0.2-0.4,0.4-0.6,0.6c-0.1,0.1-0.3,0.2-0.5,0.2c-0.8,0.1-1.6,0.4-2.1,1
		c-0.1,0.1-0.1,0.1-0.2,0c-0.2-0.2-0.2-0.5-0.1-0.7c0.1-0.3,0.2-0.5,0.4-0.7c-0.6-0.2-1.2-0.3-1.8-0.2c0-0.5,0.6-1.1,1.5-1.1
		c-0.1-0.2-0.5-0.5-0.9-0.8c0.4-0.4,1.3-0.3,1.9,0.2c0-0.2,0-0.3,0-0.5c0-0.2-0.1-0.3-0.1-0.5c0.5,0.1,0.8,0.4,1,0.8
		c0.3-0.2,0.8-0.9,1.1-1.5c0,0,0,0,0,0c0.6-1,1.1-2.3,1.1-3.5c0-1.8-0.8-2.7-2.7-4.8l-0.8-0.9c-1-1.3-0.5-4.2-0.2-5.9
		c0.1-0.7,0.3-1.2,0.3-1.2c0.1-0.2,0.2-0.5,0.4-0.7l0,0c0.2-0.3,0.4-0.6,0.5-0.8c0.2-0.5,0.3-0.9,0.1-1.2c-0.1-0.1-0.3-0.2-0.6-0.2
		c-0.6,0-1.5,0.6-2,1c0,0,0,0,0,0c-0.1,0.1-0.2,0.4-0.2,0.6c0,0.2,0,0.4,0,0.6v0c0,1.3-0.2,3.5-0.6,3.6c-0.2,0.1-0.5,0.2-0.8,0.3
		c-0.4,0.1-0.9,0.3-1.4,0.5c0,0-3.3,1.4-3.9,2.5l0,0c-0.2,0.1-0.3,0.3-0.3,0.5c-0.1,0.3-0.2,0.7-0.2,1.1c-0.5-0.2-0.8-0.6-1-1.2
		c-0.4,0.4-0.7,0.8-0.8,1.4c-0.3-0.2-0.4-0.6-0.5-1c-0.1-0.4,0-0.7,0.2-1c0,0,0,0,0,0c-0.1,0-0.3,0.1-0.4,0.1
		c-0.1,0-0.2,0.1-0.4,0.2c0.1-0.9,0.6-1.4,1.4-1.5c-0.1-0.1-0.2-0.2-0.4-0.3c-0.1-0.1-0.3-0.1-0.4-0.2c0.4-0.4,1-0.6,1.6-0.4
		c0.3,0.1,0.5,0.2,0.7,0.4c0,0,0.1,0.1,0.1,0c0.3-0.2,0.6-0.3,0.8-0.5c0,0,0,0,0,0c0,0,0.1-0.1,0.1-0.1c0,0,0,0,0.1-0.1v0
		c0.2-0.2,0.4-0.3,0.6-0.4c1.2-0.7,2.3-1.4,2.1-4.2l12.8-8.3c0.2,0.1,2,1.3,2.7,3.6h0c0,0,0,0.1,0,0.1c0.2,0.6,0.3,1.2,0.3,2
		c0,0,0,0,0,0c0,0.3,0,0.6,0,1c0.6,0.4,1.1,0.8,1.6,1.3c1.4,1.3,3.5,0.3,3.8-1.3c0.2-0.8-0.1-1.6-0.6-2.2c-0.6-0.7-1.2-1.2-2-1.7
		c-0.3-0.2-0.6-0.5-0.9-0.7c-1.1-1-1.8-2.2-2-3.7c0-0.1,0-0.1,0-0.2l0,0l0,0l1.7-1.1l-0.1,0.8c-0.1,0.5,0.2,1.2,0.6,1.8
		c0.4,0.7,0.9,1.2,1.5,1.7c0.6,0.5,1.3,1,1.9,1.6c0.9,0.8,1.4,1.7,1.6,2.9C92.2,120.8,90.8,122.8,88.8,123.2"/>
	<polygon class="st0" points="89.1,103.2 87.1,102.9 87.7,101 86,102.1 84.9,100.3 84.5,102.3 82.6,101.8 83.7,103.5 82,104.6 
		84,104.9 83.4,106.8 85.1,105.7 86.2,107.5 86.6,105.5 88.5,106 87.4,104.3 	"/>
	<polygon class="st0" points="65.4,118.6 63.4,118.3 64,116.3 62.2,117.4 61.1,115.7 60.8,117.7 58.9,117.1 60,118.9 58.3,120 
		60.2,120.3 59.7,122.2 61.4,121.1 62.5,122.8 62.8,120.9 64.8,121.4 63.6,119.7 	"/>
	<rect x="19.3" y="76.4" class="st0" width="0.9" height="7.5"/>
	<rect x="23.3" y="76.4" class="st0" width="0.9" height="7.5"/>
	<rect x="27.4" y="76.4" class="st0" width="0.9" height="7.5"/>
	<rect x="31.4" y="76.4" class="st0" width="0.9" height="7.5"/>
	<rect x="18.3" y="74.9" class="st0" width="14.9" height="1"/>
	<path class="st0" d="M25.6,86v-1.7H19l3.7,2.9C23.5,86.5,24.5,86.1,25.6,86"/>
	<path class="st0" d="M18.7,95l3.5-2.8c-0.4-0.6-0.6-1.3-0.6-2.1c0,0,0-0.1,0-0.1h-2.9V95z"/>
	<path class="st0" d="M25.5,94.2c-1.3-0.1-2.4-0.7-3.1-1.7l-3.5,2.8h6.6V94.2z"/>
	<path class="st0" d="M18.7,89.6h2.9c0.1-0.8,0.4-1.5,0.9-2.1l-3.8-3V89.6z"/>
	<path class="st0" d="M32.9,90h-3.1c0,0,0,0.1,0,0.1c0,0.8-0.2,1.5-0.6,2.2l3.7,2.9V90z"/>
	<path class="st0" d="M28.9,92.6c-0.7,0.9-1.8,1.5-3.1,1.6v1.1h6.4L28.9,92.6z"/>
	<path class="st0" d="M32.9,84.3H26v1.7c1.2,0.1,2.2,0.7,2.9,1.5L32.9,84.3z"/>
	<path class="st0" d="M32.9,84.8l-3.7,3.1c0.3,0.5,0.5,1.1,0.6,1.7h3.1V84.8z"/>
	<path class="st0" d="M29.4,90.1c0-2-1.7-3.7-3.7-3.7c-2.1,0-3.7,1.7-3.7,3.7c0,2.1,1.7,3.7,3.7,3.7C27.7,93.9,29.4,92.2,29.4,90.1
		 M25.6,90.1l1.3-1.3l0.3,0.3l-1.1,1.1l1.6,1.4l-0.3,0.3l-1.9-1.6l-0.1-0.1L25.6,90.1z"/>
	<rect x="16.4" y="104" class="st0" width="18.8" height="1.9"/>
	<rect x="17.6" y="95.8" class="st0" width="16.3" height="0.5"/>
	<polygon class="st0" points="33.7,144 33.7,143.5 27.9,143.5 27.9,146.3 23.7,146.3 23.7,143.5 17.9,143.5 17.9,144 16.6,144 
		16.6,146.8 34.9,146.8 34.9,144 	"/>
	<polygon class="st0" points="25.8,64.9 20.2,74.5 31.3,74.5 	"/>
	<path class="st0" d="M25.7,98.9c-0.7,0-1.3,0.6-1.3,1.3v3.3H27v-3.3C27,99.5,26.4,98.9,25.7,98.9"/>
	<path class="st0" d="M17.9,96.7v6.8H24v-3.3c0-0.9,0.8-1.7,1.7-1.7c0.9,0,1.7,0.8,1.7,1.7v3.3h6.2v-6.8H17.9z"/>
	<path class="st0" d="M25.8,139.3c-0.9,0-1.7,0.7-1.7,1.6h0v4.9h3.4V141C27.5,140.1,26.7,139.3,25.8,139.3"/>
	<path class="st0" d="M17.9,106.2v36.9h5.8V141h0c0-1.1,0.9-2,2.1-2c1.1,0,2.1,0.9,2.1,2h0v2.1h5.8v-36.9H17.9z M28.4,140.7
		c0-1.4-1.2-2.5-2.6-2.5c-1.4,0-2.6,1.1-2.6,2.5h-0.4c0-1.6,1.4-2.9,3-2.9c1.6,0,3,1.3,3,2.9H28.4z"/>
	<path class="st0" d="M74.7,83C74.6,83,74.6,83,74.7,83c-0.5,0.1-0.7,0.3-0.7,0.4c0,0.2,0.3,0.4,0.7,0.5l0,0c0.1,0,0.2,0,0.2,0
		c0.3,0,0.6-0.1,0.8-0.2C75.2,83.1,74.8,83,74.7,83"/>
	<path class="st0" d="M50.4,57.1v63.5l46.8-29.9V57.1H50.4z M71,86.4c0,0,1.9-0.3,2.4,0.6c0.2,0.2,0.3,0.9,0.3,0.9
		c-0.9-0.7-3.1-0.6-3.1-0.6l0,0c0,0-0.1,0-0.2,0c0,0,0,0,0,0l0,0c-4.1,0-4.2-4.4-4.2-4.4S67.1,86.5,71,86.4 M54.1,82.8
		c0.9-0.6,2.5,0.4,2.4,1.3c0,0.3,0.1,0.6,0.1,0.9H57c0-0.6,0-1.1-0.2-1.3c-0.2-0.3-0.9-0.9-0.7-1.7c0.2-0.8,0.9-1.6,1-2.2
		c0.2,0.5,0.8,1.4,1,2.2c0.2,0.8-0.5,1.4-0.7,1.7c-0.1,0.2-0.2,0.7-0.2,1.3h0.4c0-0.3,0.1-0.6,0.1-0.9c-0.1-0.9,1.6-1.9,2.5-1.3
		c1.2,1.1,0,2.7,0,2.7c0-1.5-1.3-1.5-1.9-1.1C58.1,84.5,58,84.7,58,85h0.6v0.4h-0.6c0,0.3,0.1,0.6,0.1,0.7c0.3,0.1,0.5-0.3,0.8-0.1
		c0.5,0.5-0.2,1-0.6,0.8c-0.5-0.4-0.6-0.9-0.6-1.4h-0.4c0,0.2,0,0.4,0,0.6c0.1,1.1-0.2,1.5-0.2,1.5S56.9,87.1,57,86
		c0-0.2,0-0.4,0-0.6h-0.4c0,0.5-0.1,1-0.6,1.4C55.7,87,55,86.5,55.5,86c0.3-0.2,0.5,0.2,0.8,0.1c0.1-0.1,0.1-0.4,0.1-0.7h-0.6V85
		h0.6c-0.1-0.2-0.2-0.4-0.4-0.6c-0.6-0.4-1.9-0.4-1.9,1.1C54.1,85.4,52.8,83.9,54.1,82.8 M84.7,89.3c-0.4,0.4-0.7,1.8-0.3,2.8
		c0.1,0.2,0.1,0.3,0.1,0.3c0,0.1-0.1,0.2-0.4,0.3c-0.2,0.1-0.2,0.3-0.2,0.9c0,1.2-0.1,3.7-1.7,5.7l0,0c-0.5,0.3-3.1,1.9-16.5,10.5
		c0,0-0.1,0-0.1,0c-0.1,0-0.2,0-0.3,0.1c-0.1,0-0.3,0.1-0.6,0.1c-4.4,0.6-8.2,0.1-8.2,0.1c0,0.3,0.1,0.5,0.1,0.8
		c-0.5,0-0.8-0.3-1.2-0.7c0,0.1-0.1,0.1-0.1,0.2c-0.1,0.3-0.2,0.5-0.2,0.8c0,0,0,0.1,0,0.1c-0.8-0.5-1-1.6-0.4-2
		c-0.4-0.1-0.8,0.1-1.2,0.3c0.1-0.7,0.3-1.2,1-1.5c-0.3-0.1-0.5-0.1-0.8-0.1c0.2-0.5,0.6-0.8,1.1-0.8c0.4,0,0.7,0,1,0.2
		c0.1,0.1,0.1,0.1,0.2,0.2c0.1,0.1,0.1,0.1,0.2,0.1c0.1,0,0.1,0,0.2,0c0,0,3.1,0.7,6-0.6c0,0,0,0,0,0c1.3-0.4,2.5-1.2,3.1-2.6
		c0,0,0,0,0,0c0.4-0.6,0.4-1.3,0.4-1.5c0-0.1,0-0.1,0-0.2c-0.1-0.3-0.5-0.3-0.6-0.3c-0.8,0-3.7-0.6-4.1-1.5
		c-0.1-0.3-0.3-0.9-0.5-1.7c-0.1-0.3-1.4-3.7-2.9-5.6l0,0c0,0,0,0,0,0c-0.2,0.2-0.3,0.3-0.5,0.5c-0.3-0.4-0.3-0.8-0.2-1.2
		c-0.1,0-0.1,0-0.2,0c-0.3,0.1-0.5,0.2-0.7,0.3c0,0-0.1,0-0.1,0.1c-0.1-0.9,0.6-1.6,1.2-1.4c-0.2-0.3-0.5-0.5-0.9-0.7
		c0.5-0.4,1.1-0.4,1.7-0.1c-0.1-0.3-0.2-0.5-0.4-0.6c0.5-0.1,0.9,0,1.3,0.3c0.2,0.2,0.4,0.5,0.4,0.9c0,0.1,0,0.2,0,0.3
		c0,0.1,0,0.2,0,0.2c0,0,0.1,0.1,0.1,0.1c0.1,0.1,0.2,0.2,0.3,0.3c0,0,0,0,0,0c0.1,0.2,1.3,2.2,2,3.2c1.2,1.4,2.9,2.6,5,2.8l0,0
		c0,0,0.1,0,0.1,0c0.1-0.1,0.1-0.1,0.1-0.3c0.5-2.6,3.6-5.2,8.7-7.2c0,0,0.1-0.1,0.3-0.1c0,0,0,0,0,0c0,0,0,0,0,0c0,0,0,0,0,0
		c0.1,0,0.2-0.1,0.2-0.2c0.1-0.2-0.2-0.5-0.4-0.7c-0.1-0.1-0.3-0.1-0.5-0.2c-0.5-0.1-1.3-0.3-1.6-0.9c-0.1-0.2-0.3-0.4-0.6-0.4
		c-0.4,0-0.8,0.2-0.9,0.5c-0.1,0.1-0.1,0.3-0.1,0.4c0,0,0.1,0.1-0.1,0.3c-0.2,0.2-0.6,0.4-0.9,0.4c-0.4,0-0.7-0.3-0.7-0.8l0-0.3
		c-0.1-0.9-0.1-1.1-0.4-1.1c-0.1,0-0.2,0-0.2,0.1c-0.1,0-0.2,0.1-0.3,0.1c0,0-0.1,0-0.1,0c-0.1,0-0.2,0-0.3-0.1
		c-0.1,0-0.1-0.1-0.2-0.2c0,0,0,0,0,0c0,0,0-0.1,0-0.1c0-0.2,0-0.4,0-0.4s0-0.2,0.2-0.2c0.1,0,0.3,0.1,0.6,0.3
		c0.3,0.2,0.9,0.3,1.3,0.4l0,0c0,0,1.9,0.4,2.8,0.1c0.1,0,0.2-0.1,0.3-0.2c0,0,0.1-0.1,0.1-0.1c0-0.1,0.1-0.1,0.1-0.2
		c0-0.4-0.1-1.1-0.6-1.7c-0.2-0.3-0.5-0.5-0.9-0.6c-0.1,0-0.1,0-0.2,0c0,0,0,0-0.1,0c0,0-0.1,0-0.1,0c0,0-0.1,0-0.1,0
		c-0.8-0.1-2.1,0-2.8,0.1c-0.4,0-0.6-0.2-0.7-0.3c-0.1-0.2-0.3-0.5-0.3-0.8c0-0.3-0.2-0.6-0.5-1c-0.3-0.5-0.5-0.9-0.4-1.2
		c0,0,0.1-0.1,0.2-0.1c0.2,0.1,0.6,0.2,1.1,0.6c0.1,0.1,0.3,0.1,0.4,0.1c0.3,0,0.6-0.2,0.8-0.4c0.2-0.2,0.4-0.3,0.6-0.3
		c0.2,0,0.4,0.1,0.6,0.2c0.3,0.1,0.6,0.3,0.9,0.3c0.4,0,0.7-0.2,0.9-0.6c0.3-0.5,0.7-0.9,1.4-0.9c0.2,0,0.5,0,0.7,0.1c0,0,0,0,0,0
		c0.1,0,0.2,0,0.2-0.1c0,0,0-0.1,0-0.1c0-0.2,0-1.3,0-2.3c0.5,0.4,1.4,1.3,1.7,2.2c0,0.1,0.1,0.1,0.2,0.1l0,0c0.1,0,0.2-0.1,0.2-0.2
		c0-0.1,0.3-1.6,0.4-2.3c0.5,0.3,1.8,1.1,2.4,2.7c0,0.1,0.2,0.2,0.6,0.5c0.5,0.3,1.6,1,1.5,1.4c0,0.7,0.3,1.5,1,1.8
		c0.1,0,0.1,0.1,0.1,0.1c0,0-0.1,0.1-0.1,0.2c-0.1,0.1-0.2,0.2-0.2,0.4c0,0.3,0.3,0.3,0.4,0.3c0.3,0,0.4,0.1,0.3,0.3
		c0.1,0.2,0,0.5-0.1,0.8c-0.1,0.5-0.2,1.1,0.1,1.5c0.1,0.1,0.3,0.3,0.3,0.5C84.8,89.2,84.7,89.3,84.7,89.3 M91.8,90.4
		c-0.8,0.6-1.7,0.8-2.6,0.4c-0.3-0.1-0.3-0.1-0.5,0.2c-0.5,1.1-0.7,2.2-0.4,3.3c0.1,0.3,0.2,0.6,0.4,0.9l-1.3,0.9
		c-1-1.8-1.1-3.7-0.2-5.5c0.3-0.6,0.4-1.1,0.4-1.7c-0.1-1.3,0.5-2.3,1.5-3c0.6-0.4,1.2-0.7,1.8-1.1c0.3-0.2,0.6-0.3,0.8-0.5
		c0.2-0.2,0.4-0.4,0.5-0.6c0-0.1,0.1-0.2,0.1-0.3c0,0,0,0,0.1,0c0.2,0.5,0.4,0.9,0.5,1.4c0,0.2,0,0.4,0,0.5c0,0,0,0.1,0,0.1
		c0,0.1-0.1,0.2-0.1,0.3c-0.3,0.6-1.2,1-1.5,1.2c0,0,0,0,0,0c0,0,0,0,0,0c-0.1,0-0.1,0.1-0.1,0.1c-1.5,0.9-1.6,1.1-1.6,1.1
		c0.6-0.3,1.1-0.6,1.7-0.9c0.6-0.3,1.1-0.6,1.5-1.2c-0.1,1.2-2.1,2.4-3.2,3c-0.1,0.1-0.3,0.1-0.4,0.2c-0.1,0-0.1,0.1-0.2,0.1
		c0,0,1.5,0,3.8-2.4C93.2,88.2,93,89.6,91.8,90.4"/>
	<path class="st0" d="M13.6,35.8c0.3,1.5,0.5,2.3,0.8,3.9c2-0.5,4.1-0.9,6.1-1.3c-0.3-1.5-0.4-2.4-0.7-3.9
		C17.8,34.9,15.7,35.3,13.6,35.8"/>
	<path class="st0" d="M85.7,36c-0.3,1.5-0.5,2.3-0.9,3.9c2,0.5,4,1,6.1,1.5c0.4-1.5,0.6-2.3,1-3.8C89.9,36.9,87.8,36.4,85.7,36"/>
	<path class="st0" d="M6.9,37.5c0.4,1.5,0.6,2.3,1,3.8c2-0.5,4-1,6.1-1.5c-0.3-1.5-0.5-2.4-0.9-3.9C11,36.4,9,36.9,6.9,37.5"/>
	<path class="st0" d="M4.7,34.7c0.8,0.9,1.2,1.4,2,2.3c12.2-3.3,24.2-5.2,36.7-6c0.1-0.1,0.2-0.2,0.3-0.2c1.5-1.2,3.5-1.8,5.5-1.8
		c2,0,3.9,0.6,5.5,1.8c0.1,0.1,0.2,0.2,0.3,0.2c12.8,0.7,24.9,2.7,37.3,6c0.8-0.9,1.2-1.4,2-2.3C64.2,26.4,34.6,26.4,4.7,34.7"/>
	<path class="st0" d="M22.9,7.9c-0.3-2.2-0.5-3.3-0.8-5.5c-0.1,0-0.3,0-0.4,0.1c-0.6,0.1-1.2,0.2-1.7,0.3c-0.6,0.1-1.2,0.2-2,0.3
		c0.2,1.1,0.3,1.6,0.4,2.7c0,0.1-0.1,0.3-0.3,0.3c-1.9,0.3-2.8,0.5-4.7,0.9c-0.2,0-0.3,0-0.4-0.2c-0.2-1.1-0.3-1.6-0.5-2.7
		c-1.2,0.2-1.8,0.4-3,0.6c0.2,1.1,0.3,1.6,0.6,2.7c0,0.1-0.1,0.3-0.3,0.3C8.1,8.2,7.2,8.5,5.3,8.9C5.1,9,5,8.9,4.9,8.8L4.3,6.1
		c-0.8,0.2-1.4,0.4-2,0.5c-0.5,0.1-1,0.3-1.7,0.5c-0.1,0-0.2,0.1-0.3,0.1c0.5,2.1,0.8,3.2,1.4,5.3C8.7,10.6,15.7,9.1,22.9,7.9"/>
	<path class="st0" d="M22.9,25c0.1,0.8,0.2,1.1,0.3,1.9c0.7-0.1,1.3-0.2,1.8-0.3l-1-6.3c-6.1,1-12.1,2.3-18,3.9c0,0,0,0,0,0
		c-0.1,0-0.1,0-0.2,0c0.4,1.5,0.6,2.3,1,3.8l0.1,0.5c0.2,0.7,0.3,1.1,0.5,1.8c1.6-0.4,2.4-0.6,3.9-1c-0.2-0.7-0.3-1.1-0.4-1.9
		c0-0.2-0.1-0.3-0.1-0.5c0.1,0,0.2,0,0.3-0.1c0,0,0,0,0,0c1.3-0.3,2.1-0.5,3.5-0.8c0,0,0,0,0,0h0c0.1,0,0.2,0,0.3-0.1
		c0,0.2,0.1,0.3,0.1,0.5c0.1,0.7,0.2,1.1,0.4,1.9c1.6-0.4,2.4-0.5,4-0.8c-0.1-0.7-0.2-1.1-0.3-1.9c0-0.2-0.1-0.3-0.1-0.5
		c1.5-0.3,2.4-0.4,3.8-0.7h0c0.1,0,0.2,0,0.3,0C22.8,24.7,22.8,24.8,22.9,25"/>
	<path class="st0" d="M9.2,22.7L9.2,22.7l-0.9-3.8c-1.4,0.4-2.2,0.6-3.7,1c0.4,1.5,0.6,2.3,1,3.8C7,23.3,7.8,23.1,9.2,22.7
		C9.2,22.7,9.2,22.7,9.2,22.7"/>
	<path class="st0" d="M19.8,20.4C19.8,20.4,19.8,20.4,19.8,20.4c1.5-0.2,2.4-0.4,4-0.6l-0.7-4c-1.5,0.2-2.4,0.4-3.9,0.7L19.8,20.4
		L19.8,20.4z"/>
	<path class="st0" d="M92.6,28.7c-0.2,0.8-0.3,1.3-0.5,2.1c0,0.1-0.2,0.2-0.4,0.2c-1.8-0.5-2.7-0.7-4.5-1.2c-0.2,0-0.3-0.2-0.2-0.3
		c0.2-0.8,0.3-1.3,0.5-2.1c-1.1-0.3-1.7-0.4-2.9-0.7c-0.2,0.8-0.3,1.3-0.4,2.1c0,0.1-0.2,0.2-0.3,0.2c-1.8-0.4-2.7-0.6-4.5-0.9
		c-0.2,0-0.3-0.2-0.2-0.3l0.4-2.1c-1.2-0.2-1.7-0.3-2.9-0.5c0,0,0,0,0,0c0,0,0,0,0,0c-0.1,0.9-0.2,1.3-0.3,2.1
		c0,0.1-0.2,0.2-0.3,0.2c-1.8-0.3-2.7-0.5-4.6-0.7c-0.2,0-0.3-0.2-0.3-0.3c0.1-0.9,0.2-1.3,0.3-2.2c-1.2-0.2-1.7-0.2-2.9-0.4
		c-0.1,0.9-0.1,1.3-0.2,2.2c0,0.1-0.2,0.2-0.3,0.2c-1.8-0.2-2.8-0.3-4.6-0.5c-0.2,0-0.3-0.1-0.3-0.3c0.1-0.9,0.1-1.3,0.2-2.2
		c-0.6-0.1-0.9-0.1-1.5-0.1c-0.6,0-0.9-0.1-1.4-0.1c0,0,0,0,0,0c0,0,0,0,0,0c-0.1,0.9-0.1,1.3-0.1,2.2c0,0.1-0.1,0.3-0.3,0.2
		c-1.8-0.1-2.8-0.2-4.6-0.2c-0.2,0-0.3-0.1-0.3-0.3c0-0.8,0-1.3,0.1-2.1c0,0,0,0,0-0.1c-1.2,0-1.7-0.1-2.9-0.1v0c0,0,0,0,0,0h0
		c0,0,0,0,0,0c0,0.9,0,1.3,0,2.2c0,0.1-0.1,0.3-0.3,0.3c-1.8,0-2.8,0-4.6,0c-0.2,0-0.3-0.1-0.3-0.3c0-0.9,0-1.3,0-2.2
		c-1.2,0-1.8,0-2.9,0.1c0,0.9,0,1.3,0.1,2.2c0,0.1-0.1,0.3-0.3,0.3c-1.8,0.1-2.8,0.1-4.6,0.2c-0.2,0-0.3-0.1-0.3-0.2
		c-0.1-0.9-0.1-1.3-0.1-2.2c0,0,0,0,0,0c-0.6,0-0.9,0.1-1.4,0.1c-0.6,0-0.9,0.1-1.5,0.1c0.1,0.9,0.1,1.3,0.2,2.2
		c0,0.1-0.1,0.3-0.3,0.3c-1.8,0.2-2.8,0.3-4.6,0.5c-0.2,0-0.3-0.1-0.3-0.2c-0.1-0.9-0.1-1.3-0.2-2.2c-1.2,0.1-1.7,0.2-2.9,0.4
		c0.1,0.9,0.2,1.3,0.3,2.2c0,0.1-0.1,0.3-0.3,0.3c-1.8,0.3-2.7,0.4-4.6,0.7c-0.2,0-0.3-0.1-0.3-0.2c-0.1-0.9-0.2-1.3-0.3-2.1
		c-1.2,0.2-1.7,0.3-2.9,0.5c0.1,0.9,0.2,1.3,0.4,2.1c0,0.1-0.1,0.3-0.2,0.3c-1.8,0.3-2.7,0.5-4.5,0.9c-0.2,0-0.3-0.1-0.3-0.2
		c-0.2-0.8-0.3-1.3-0.4-2.1c-1.2,0.3-1.7,0.4-2.9,0.7c0.2,0.8,0.3,1.3,0.5,2.1c0,0.1-0.1,0.3-0.2,0.3C9.7,30.3,8.8,30.5,7,31
		c-0.2,0-0.3,0-0.4-0.2c-0.2-0.8-0.3-1.3-0.5-2.1c-1.2,0.3-1.8,0.5-3,0.9l1.3,4.6c30.1-8.4,59.9-8.4,90,0l1.3-4.6
		C94.5,29.3,93.9,29.1,92.6,28.7"/>
	<path class="st0" d="M64.9,36.3c2.1,0.2,4.1,0.5,6.1,0.8c0.2-1.6,0.3-2.5,0.5-3.9c-2.1-0.3-4.2-0.6-6.3-0.8
		C65.1,33.9,65,34.8,64.9,36.3"/>
	<path class="st0" d="M68,41.3c2,0.3,4,0.6,6,0.9c0.2-1.5,0.4-2.4,0.6-3.9c-2-0.3-4.1-0.7-6.1-0.9C68.3,38.8,68.2,39.7,68,41.3"/>
	<path class="st0" d="M71.5,37.3c2,0.3,4.1,0.7,6.1,1c0.3-1.6,0.4-2.4,0.7-3.9c-2.1-0.4-4.2-0.7-6.3-1.1
		C71.9,34.8,71.8,35.7,71.5,37.3"/>
	<path class="st0" d="M57.4,44.6c2.1,0.2,4.1,0.4,6.1,0.6c0.1-1.5,0.2-2.5,0.4-3.9c-2.1-0.2-4.2-0.4-6.3-0.6
		C57.5,41.9,57.4,43.1,57.4,44.6"/>
	<path class="st0" d="M54.2,31.2c-1.4-1.1-3.2-1.7-5.1-1.7c-1.9,0-3.7,0.6-5.1,1.7c-0.2,0.2-0.4,0.4-0.6,0.5
		c-1.1,1.1-1.9,2.5-2.2,3.9c0,0.2-0.1,0.3-0.1,0.5c-0.1,0.5-0.1,0.9-0.1,1.3c0.1,2.9,0.2,4.3,0.4,7.1c0.9,0,1.4-0.1,2.3-0.1
		c-0.1-2.9-0.2-4.3-0.3-7.2c0-0.4,0-0.8,0.1-1.3c0-0.2,0.1-0.4,0.2-0.6c0.7-2.2,2.9-3.7,5.4-3.7c2.5,0,4.6,1.5,5.4,3.7
		c0.1,0.2,0.1,0.4,0.2,0.6c0.1,0.4,0.1,0.9,0.1,1.3c-0.1,2.9-0.1,4.3-0.2,7.2c0.9,0,1.4,0.1,2.3,0.1c0.1-2.9,0.2-4.3,0.3-7.1
		c0-0.4,0-0.8-0.1-1.3c0-0.2,0-0.3-0.1-0.5c-0.3-1.5-1-2.8-2.2-3.9C54.7,31.6,54.5,31.4,54.2,31.2"/>
	<path class="st0" d="M78.9,34.5c-0.3,1.5-0.4,2.3-0.7,3.9c2,0.4,4.1,0.8,6.1,1.3c0.3-1.5,0.5-2.4,0.8-3.9
		C83.1,35.3,81,34.9,78.9,34.5"/>
	<path class="st0" d="M57.6,40.1c1.1,0.1,2.3,0.2,3.4,0.3c0.1-1.5,0.2-2.4,0.3-3.9c-1.2-0.1-2.4-0.2-3.6-0.3
		c0.1,0.5,0.1,0.9,0.1,1.3C57.7,38.5,57.6,39.3,57.6,40.1"/>
	<path class="st0" d="M61.5,40.5c2,0.2,4,0.4,6,0.7c0.2-1.6,0.3-2.5,0.4-3.9c-2-0.3-4.1-0.5-6.1-0.7C61.7,38,61.6,38.9,61.5,40.5"/>
	<path class="st0" d="M76.8,43.2c-2-0.4-3.9-0.7-5.9-1c-0.2,1.5-0.3,2.4-0.5,3.9c1.9,0.3,3.9,0.6,5.8,1
		C76.4,45.6,76.5,44.7,76.8,43.2"/>
	<path class="st0" d="M88.8,50.6c-5.2-1.4-10.3-2.5-15.5-3.3c0,0,0,0,0,0c-8.9-1.5-16.2-2.3-24.2-2.3c-8-0.1-15.3,0.8-24.2,2.3
		c0,0-7.8,1.5-11.4,2.5c-1.2,0.3-2.4,0.6-3.6,0.9c-0.4,0.1-0.7,0.2-1.1,0.3c0.4,1.5,0.6,2.3,1,3.8c26.5-7.3,52.3-7.3,78.9,0
		c0.4-1.5,0.6-2.3,1-3.8C89.4,50.8,89.2,50.7,88.8,50.6"/>
	<path class="st0" d="M64,45.3c1.9,0.2,3.9,0.5,5.8,0.8c0.2-1.6,0.3-2.5,0.5-3.9c-2-0.3-4-0.6-6-0.8C64.2,42.8,64.2,43.7,64,45.3"/>
	<path class="st0" d="M81.8,39.7c-0.3,1.5-0.5,2.3-0.8,3.9c2.9,0.6,5.9,1.3,8.8,2.1c0.4-1.5,0.6-2.3,1-3.8
		C87.8,41,84.8,40.3,81.8,39.7"/>
	<path class="st0" d="M81.2,39.6c-2-0.4-4.1-0.8-6.1-1.2c-0.2,1.5-0.4,2.3-0.6,3.9c2,0.3,4,0.7,5.9,1.2C80.8,41.9,80.9,41,81.2,39.6
		"/>
	<path class="st0" d="M89.7,46.2c-2-0.5-3.9-1-5.9-1.5c-0.3,1.5-0.5,2.3-0.9,3.9c1.9,0.4,3.8,0.9,5.7,1.4
		C89,48.4,89.3,47.7,89.7,46.2"/>
	<path class="st0" d="M83.2,44.6c-2-0.4-3.9-0.9-5.9-1.3c-0.3,1.5-0.4,2.3-0.7,3.9c1.9,0.4,3.8,0.8,5.8,1.2
		C82.7,46.9,82.9,46,83.2,44.6"/>
	<path class="st0" d="M20.4,34.4c0.3,1.5,0.4,2.4,0.7,3.9c2-0.4,4.1-0.7,6.1-1.1c-0.2-1.6-0.3-2.5-0.5-3.9
		C24.6,33.6,22.5,34,20.4,34.4"/>
	<path class="st0" d="M8,41.8c0.4,1.5,0.6,2.3,1,3.8c0.8-0.2,1.6-0.4,2.3-0.6c-0.4-1.5-0.6-2.4-0.9-3.8C9.6,41.4,8.8,41.6,8,41.8"/>
	<path class="st0" d="M15.9,48.6c-0.3-1.5-0.5-2.4-0.9-3.9c-2,0.5-3.9,0.9-5.9,1.5c0.4,1.5,0.6,2.3,1,3.8C12.1,49.5,14,49,15.9,48.6
		"/>
	<path class="st0" d="M28.5,46.1c-0.2-1.6-0.3-2.4-0.5-3.9c-2,0.3-4,0.6-5.9,1c0.3,1.5,0.4,2.3,0.7,3.9
		C24.6,46.7,26.5,46.4,28.5,46.1"/>
	<path class="st0" d="M22.2,47.2c-0.3-1.5-0.4-2.4-0.7-3.9c-2,0.4-3.9,0.8-5.9,1.3c0.3,1.5,0.5,2.3,0.8,3.9
		C18.3,48,20.2,47.6,22.2,47.2"/>
	<path class="st0" d="M34.8,45.3c-0.1-1.5-0.2-2.5-0.4-3.9c-2,0.2-4,0.5-6,0.8c0.2,1.5,0.3,2.4,0.5,3.9
		C30.9,45.7,32.8,45.5,34.8,45.3"/>
	<path class="st0" d="M24.8,42.2c2-0.3,4-0.6,6-0.9c-0.2-1.6-0.3-2.5-0.5-3.9c-2,0.3-4.1,0.6-6.1,0.9C24.4,39.7,24.6,40.6,24.8,42.2
		"/>
	<path class="st0" d="M27.3,33.2c0.2,1.5,0.3,2.4,0.5,3.9c2-0.3,4.1-0.6,6.1-0.8c-0.1-1.5-0.2-2.5-0.4-3.9
		C31.5,32.7,29.4,32.9,27.3,33.2"/>
	<path class="st0" d="M24.3,42.3c-0.2-1.5-0.4-2.4-0.6-3.9c-2,0.4-4.1,0.8-6.1,1.2c0.3,1.5,0.5,2.3,0.8,3.9
		C20.3,43,22.3,42.6,24.3,42.3"/>
	<path class="st0" d="M37.5,36.5c0.1,1.5,0.2,2.4,0.3,3.9c0.9-0.1,1.9-0.2,2.8-0.3c0-0.8-0.1-1.6-0.1-2.7c0-0.4,0-0.8,0-1.3
		C39.6,36.3,38.6,36.4,37.5,36.5"/>
	<path class="st0" d="M35.3,45.2c1.9-0.2,3.7-0.4,5.6-0.6c-0.1-1.5-0.1-2.7-0.2-4c-1.9,0.2-3.8,0.4-5.7,0.6
		C35.1,42.8,35.2,43.7,35.3,45.2"/>
	<path class="st0" d="M34.5,36.3c2-0.2,4.1-0.4,6.2-0.6c0,0,0,0,0-0.1c0.3-1.5,1-2.9,2.1-4c-2.9,0.2-5.8,0.4-8.6,0.7
		C34.3,33.8,34.4,34.7,34.5,36.3"/>
	<path class="st0" d="M31.3,41.2c2-0.3,4-0.5,6-0.7c-0.1-1.5-0.2-2.4-0.3-3.9c-2.1,0.2-4.1,0.5-6.1,0.7C31,38.7,31.1,39.6,31.3,41.2
		"/>
	<path class="st0" d="M11,41.1c0.4,1.5,0.6,2.3,0.9,3.8c2-0.5,3.9-1,5.9-1.4c-0.3-1.5-0.5-2.4-0.8-3.9C15,40.1,13,40.6,11,41.1"/>
	<path class="st0" d="M57.6,35.6C57.6,35.6,57.6,35.6,57.6,35.6c2.3,0.2,4.5,0.5,6.7,0.7c0.1-1.5,0.2-2.5,0.4-3.9
		c-3-0.3-6.1-0.6-9.2-0.8C56.6,32.7,57.3,34.1,57.6,35.6"/>
	<path class="st0" d="M83.5,17.3l-0.7,3.9l0,0c0,0,0,0,0,0c1.2,0.2,1.8,0.4,3,0.6l0.8-3.9C85.4,17.7,84.7,17.5,83.5,17.3"/>
	<path class="st0" d="M86.3,13.2c-0.3,1.5-0.5,2.4-0.8,3.9c0.4,0.1,0.8,0.2,1.2,0.3l0.2-0.8c0.1-0.4,0.3-0.8,0.7-1
		c0.5-0.3,1.1-0.4,1.7-0.2c1.1,0.3,1.8,1.2,1.6,2.2l-0.2,0.8c1.4,0.4,2.2,0.6,3.7,1c0.4-1.5,0.6-2.3,1-3.8
		C92.3,14.6,89.3,13.9,86.3,13.2"/>
	<path class="st0" d="M79.7,16l0.1-0.9c0.1-0.4,0.3-0.8,0.7-1c0.5-0.3,1-0.4,1.6-0.3c1.1,0.2,1.9,1.2,1.7,2.1l-0.2,0.9
		c0.5,0.1,0.9,0.2,1.2,0.3c0.3-1.5,0.5-2.4,0.8-3.9c-3-0.7-6.1-1.2-9.2-1.7c0,0-0.1,0-0.1,0l-0.7,3.9C77.3,15.6,78.1,15.7,79.7,16"
		/>
	<path class="st0" d="M79,20.4L79,20.4l0.6-4c-1.5-0.3-2.4-0.4-4-0.7l-0.7,4C76.6,20,77.4,20.2,79,20.4C79,20.4,79,20.4,79,20.4"/>
	<path class="st0" d="M76,8.4c0.2,1,0.3,1.4,0.5,2.4c6.4,1,12.8,2.4,19.1,4.1c0.5-0.8,0.8-1.2,1.4-2C90,11.1,83,9.6,76,8.4"/>
	<path class="st0" d="M90.5,18.9l-0.9,3.8l0,0c0,0,0,0,0,0c1.4,0.4,2.2,0.6,3.7,1c0.4-1.5,0.6-2.3,1-3.8
		C92.7,19.4,92,19.2,90.5,18.9"/>
	<path class="st0" d="M9.6,15.3c0.6-0.1,1.2-0.1,1.7,0.2c0.4,0.2,0.6,0.6,0.7,1l0.2,0.8c0.5-0.1,0.8-0.2,1.2-0.3
		c-0.3-1.5-0.5-2.4-0.8-3.9c-3,0.7-6.1,1.4-9.1,2.2c0.4,1.5,0.6,2.3,1,3.8c1.5-0.4,2.3-0.6,3.7-1L8,17.5C7.7,16.5,8.5,15.6,9.6,15.3
		"/>
	<path class="st0" d="M37.6,6.9c0.7,0.9,1.1,1.3,1.8,2.2c6.6-0.4,13.2-0.4,19.8,0c0.7-0.9,1.1-1.3,1.9-2.2
		C53.3,6.4,45.5,6.4,37.6,6.9"/>
	<path class="st0" d="M98.1,7.1L98.1,7.1c-0.6-0.2-1.2-0.3-1.6-0.5c-0.6-0.2-1.2-0.3-2-0.5c-0.3,1.1-0.4,1.6-0.6,2.7
		c0,0.1-0.2,0.2-0.4,0.2c-1.8-0.5-2.8-0.7-4.6-1.1c-0.2,0-0.3-0.2-0.3-0.3c0.2-1.1,0.3-1.6,0.6-2.7c-1.2-0.3-1.8-0.4-3-0.6
		c-0.2,1.1-0.3,1.6-0.5,2.7c0,0.1-0.2,0.2-0.4,0.2c-1.9-0.4-2.8-0.6-4.7-0.9c-0.2,0-0.3-0.2-0.3-0.3c0.2-1.1,0.3-1.6,0.4-2.7
		c-0.6-0.1-1-0.2-1.5-0.3c-0.5-0.1-1-0.2-1.6-0.3c-0.3,0-0.6-0.1-1-0.1c-0.3,2.2-0.5,3.3-0.8,5.5c7.2,1.2,14.2,2.7,21.2,4.6
		c0.5-2.1,0.8-3.2,1.4-5.3C98.4,7.1,98.3,7.1,98.1,7.1"/>
	<path class="st0" d="M93.2,24.2c-6-1.7-12.1-3-18.3-3.9l-1,6.3c0.5,0.1,1.1,0.2,1.8,0.3c0.1-0.8,0.2-1.1,0.3-1.9c0,0,0,0,0,0
		c0,0,0,0,0,0c0-0.2,0-0.3,0.1-0.5c1.6,0.3,2.5,0.4,4.1,0.7c0,0.2-0.1,0.3-0.1,0.5h0c-0.1,0.7-0.2,1.1-0.3,1.9
		c1.6,0.3,2.4,0.5,4,0.8c0.1-0.7,0.2-1.1,0.4-1.9h0c0-0.2,0.1-0.3,0.1-0.5c1.6,0.4,2.4,0.6,4.1,1c0,0.2-0.1,0.3-0.1,0.5c0,0,0,0,0,0
		c0,0,0,0,0,0c-0.2,0.7-0.3,1.1-0.4,1.9c1.6,0.4,2.4,0.6,3.9,1c0.2-0.7,0.3-1.1,0.5-1.8c0,0,0,0,0,0c0,0,0,0,0,0l0.1-0.5h0
		C92.6,26.5,92.8,25.8,93.2,24.2C93.1,24.2,93.1,24.2,93.2,24.2C93.1,24.2,93.1,24.2,93.2,24.2"/>
	<path class="st0" d="M37.3,0.9L37.3,0.9c-0.1,0-0.2,0-0.2,0c0.1,2.2,0.2,3.3,0.3,5.5c8.1-0.6,16-0.6,24.1,0
		c0.1-2.2,0.2-3.3,0.3-5.5c-0.2,0-0.4,0-0.5,0v0c-0.3,0-0.5,0-0.7-0.1c-0.2,0-0.4,0-0.7-0.1c-0.1,1.1-0.1,1.7-0.1,2.8
		c0,0.1-0.1,0.3-0.3,0.2c-1.3-0.1-1.9-0.1-3.2-0.2c-0.2,0-0.3-0.1-0.3-0.3c0-1.1,0.1-1.7,0.1-2.8c-0.8,0-1.2-0.1-1.9-0.1
		c0,1.1,0,1.7-0.1,2.8c0,0.1-0.1,0.3-0.3,0.3c-1.3,0-1.9-0.1-3.2-0.1c-0.2,0-0.3-0.1-0.3-0.3c0-1.1,0-1.7,0-2.8c-0.8,0-1.2,0-1.9,0
		c0,1.1,0,1.7,0,2.8c0,0.1-0.1,0.3-0.3,0.3c-1.3,0-1.9,0-3.2,0.1c-0.2,0-0.3-0.1-0.3-0.3c0-1.1,0-1.7-0.1-2.8c-0.8,0-1.2,0-1.9,0.1
		c0,1.1,0.1,1.7,0.1,2.8c0,0.1-0.1,0.3-0.3,0.3c-1.3,0.1-1.9,0.1-3.2,0.2c-0.2,0-0.3-0.1-0.3-0.2c-0.1-1.1-0.1-1.7-0.1-2.8
		c-0.3,0-0.6,0-0.9,0.1C37.8,0.9,37.5,0.9,37.3,0.9"/>
	<path class="st0" d="M3.3,15c6.3-1.7,12.7-3.1,19.1-4.1c0.2-1,0.3-1.4,0.5-2.4c-7.1,1.2-14,2.7-21,4.5C2.4,13.8,2.7,14.2,3.3,15"/>
	<path class="st0" d="M22.3,11.4c-3.1,0.5-6.1,1.1-9.2,1.7c0.3,1.5,0.5,2.4,0.8,3.9c0.4-0.1,0.8-0.2,1.2-0.3L15,15.9
		c-0.2-0.9,0.6-1.9,1.7-2.1c0.6-0.1,1.2,0,1.6,0.3c0.4,0.3,0.6,0.6,0.7,1l0.1,0.9c1.5-0.3,2.4-0.4,3.9-0.7L22.3,11.4
		C22.4,11.4,22.4,11.4,22.3,11.4"/>
	<path class="st0" d="M16,21.2L16,21.2l-0.8-3.9c-1.2,0.2-1.9,0.4-3.1,0.7l0.8,3.9C14.2,21.5,14.9,21.4,16,21.2
		C16,21.2,16,21.2,16,21.2"/>
	<path class="st0" d="M52.2,9.4c0,1.5,0,2.4-0.1,3.9c0.2,0,0.5,0,0.8,0c0-0.8,0-1.2,0-2c0-0.1,0.1-0.3,0.3-0.3c1,0,1.5,0.1,2.5,0.1
		c0.2,0,0.3,0.1,0.3,0.3l-0.1,2c1.4,0.1,2,0.1,3.4,0.2c-0.1-1.6-0.1-2.4-0.2-4C56.8,9.5,54.5,9.4,52.2,9.4"/>
	<path class="st0" d="M39.2,18.2c1.4-0.1,2.1-0.2,3.5-0.2c-0.1-1.6-0.1-2.4-0.1-4c-1.3,0.1-1.9,0.1-3.2,0.2
		C39.3,15.7,39.3,16.6,39.2,18.2"/>
	<path class="st0" d="M51.6,13.2c0-1.5,0-2.4,0-3.9c-1.6,0-3.1,0-4.7,0c0,1.5,0,2.4,0.1,3.9c0.2,0,0.5,0,0.8,0c0-0.8,0-1.2,0-2
		c0-0.1,0.1-0.3,0.3-0.3c1,0,1.5,0,2.5,0c0.2,0,0.3,0.1,0.3,0.3c0,0.8,0,1.2,0,2C51.1,13.2,51.3,13.2,51.6,13.2"/>
	<path class="st0" d="M47.7,13.7c-0.8,0-1.2,0-2.1,0c0,1.6,0,2.4,0.1,4c0.8,0,1.2,0,2,0C47.7,16.2,47.7,15.4,47.7,13.7"/>
	<path class="st0" d="M59.4,14.1C58,14,57.3,14,55.9,13.9c-0.1,1.6-0.1,2.4-0.1,4c1.5,0.1,2.3,0.1,3.8,0.3
		C59.5,16.6,59.5,15.7,59.4,14.1"/>
	<path class="st0" d="M52.9,13.8c-0.8,0-1.2,0-2.1,0c0,1.6,0,2.4,0,4c0.8,0,1.2,0,2,0C52.8,16.2,52.8,15.4,52.9,13.8"/>
	<path class="st0" d="M59.6,18.7c-1.6-0.1-2.5-0.2-4.1-0.3c-1,0-1.5-0.1-2.4-0.1c-0.4,0-0.7,0-1,0c0,1.5,0,2.4-0.1,4
		c1.3,0,2.1,0,3.6,0.1c0,0.2,0,0.3,0,0.5h0c0,0.8,0,1.1-0.1,1.9c1.6,0.1,2.4,0.1,4,0.2c0-0.8,0.1-1.1,0.1-1.9c0,0,0,0,0,0
		c0,0,0,0,0,0c0-0.2,0-0.3,0-0.5C59.6,21,59.7,20.3,59.6,18.7"/>
	<path class="st0" d="M51.5,22.3c0-1.6,0-2.5,0-4c-0.3,0-0.6,0-1,0c-1,0-1.5,0-2.4,0c-0.3,0-0.5,0-0.7,0c0,1.5,0,2.5,0.1,4.1h0
		c0,0.1,0,0.2,0,0.4h0l0,1.9c1.6,0,2.4,0,4,0c0-0.8,0-1.1,0-1.9c0,0,0,0,0,0c0,0,0,0,0,0C51.4,22.6,51.4,22.5,51.5,22.3
		C51.4,22.3,51.4,22.3,51.5,22.3"/>
	<path class="st0" d="M45.6,11.3c0,0.8,0,1.2,0,2c0.3,0,0.5,0,0.8,0c0-1.5,0-2.4-0.1-3.9c-2.2,0-4.5,0.1-6.8,0.2
		c-0.1,1.6-0.1,2.4-0.2,4c1.3-0.1,1.9-0.1,3.2-0.2c0-0.8,0-1.2-0.1-2c0-0.1,0.1-0.3,0.3-0.3c1-0.1,1.5-0.1,2.5-0.1
		C45.5,11,45.6,11.1,45.6,11.3"/>
	<path class="st0" d="M46.8,18.3c-0.4,0-0.8,0-1.3,0c-1,0-1.5,0.1-2.4,0.1c-1.5,0.1-2.3,0.1-3.8,0.3c-0.1,1.6,0,2.3,0,3.9
		c0,0.2,0,0.3,0,0.5h0c0,0.8,0.1,1.1,0.1,1.9c1.6-0.1,2.4-0.1,4-0.2c0-0.8,0-1.1-0.1-1.9h0c0-0.2,0-0.3,0-0.5
		c1.5-0.1,2.3-0.1,3.6-0.1C46.8,20.7,46.8,19.8,46.8,18.3"/>
	<path class="st0" d="M130.1,65c9.3,0,12.4,3,12.4,8.5c0,3.5-2,6.1-5.9,6.9v0.2c5.4,0.3,8.5,3.9,8.5,8.5c0,5.9-3.5,10-13.8,10H120
		V65H130.1z M126.8,78.4h2.8c4.4,0,5.9-1.5,5.9-4.1c0-2.6-1.5-4-5.9-4h-2.8V78.4z M126.8,93.7h4.5c4.6,0,6.4-1.6,6.4-4.9
		s-1.9-4.9-6.7-4.9h-4.2V93.7z"/>
	<path class="st0" d="M164.9,64.5l13.4,34.6h-7.5l-3.4-9h-10.9l-3.4,9h-6.1l13.1-33.5L164.9,64.5z M158.5,84.9h7.1l-3.6-9.6
		L158.5,84.9z"/>
	<path class="st0" d="M201.1,71.8c-2.2-1.3-5.2-2.1-7.6-2.1c-3.3,0-5.3,1.4-5.3,3.8c0,0.8,0.3,1.5,0.9,2.1c0.9,0.9,2.2,1.5,3.9,2.3
		l2.2,1c6.3,3,8.4,6.1,8.4,10.6c0,7-5.3,10.2-12.5,10.2c-3.6,0-6.7-0.8-9.8-2.2l0.4-6.2c2.8,1.7,6.2,2.9,9.3,2.9c3.4,0,6-1.3,6-4.1
		c0-2.8-2.3-4.2-5.4-5.5l-1.3-0.5c-4.3-1.8-9.2-4.1-9.2-10.1c0-6.4,5.6-9.6,11.5-9.6c3.2,0,6.5,0.8,8.9,2L201.1,71.8z"/>
	<polygon class="st0" points="216.2,65 216.2,79.7 229.4,79.7 229.4,65 236.2,65 236.2,99.1 229.4,99.1 229.4,85.1 216.2,85.1 
		216.2,99.1 209.4,99.1 209.4,65 	"/>
	<polygon class="st0" points="250.3,65 250.3,80.5 261.5,65 268.3,65 257.1,80.4 269.4,99.1 261.8,99.1 252.6,85.2 250.3,85.2 
		250.3,99.1 243.5,99.1 243.5,65 	"/>
	<rect x="273.4" y="65" class="st0" width="6.8" height="34.1"/>
	<path class="st0" d="M302.3,64.5l13.4,34.6h-7.5l-3.4-9H294l-3.4,9h-6.1l13.1-33.5L302.3,64.5z M295.8,84.9h7.1l-3.6-9.6
		L295.8,84.9z"/>
	<polygon class="st0" points="144.6,112.2 143.9,117.6 134.2,117.6 134.2,146.4 127.4,146.4 127.4,117.6 117.2,117.6 117.9,112.2 	
		"/>
	<rect x="149.1" y="112.2" class="st0" width="6.8" height="34.1"/>
	<path class="st0" d="M172.1,112.2c10.4,0,14.9,3.3,14.9,10.3c0,4.1-1.7,7-5.4,9.3l8.1,14.6h-7.4l-6.6-12.8h-5.5v12.8h-6.8v-34.1
		H172.1z M170.1,128.4h3.4c4.1,0,6.3-1.5,6.3-5.4c0-3.9-2.1-5.4-6.3-5.4h-3.4V128.4z"/>
	<path class="st0" d="M208.6,111.7l13.4,34.6h-7.5l-3.4-9h-10.9l-3.4,9h-6.1l13.1-33.5L208.6,111.7z M202.2,132.2h7.1l-3.6-9.6
		L202.2,132.2z"/>
	<polygon class="st0" points="230.9,112.2 247.6,135 247.6,112.2 253.5,112.2 253.5,146.4 248.5,146.4 232,124.8 232,146.4 
		226.2,146.4 226.2,112.2 	"/>
	<path class="st0" d="M281.7,112.2l-1.6,5.4h-12.5v9.4H279l-1.3,5.4h-10.2v8.6h14.8l-1.3,5.4h-20.4v-34.1H281.7z M269.4,108.7h-5.6
		v-5.4h5.6V108.7z M278.6,108.7H273v-5.4h5.6V108.7z"/>
</g>
</svg>
