<?xml version="1.0" encoding="utf-8"?>
<!-- Generator: Adobe Illustrator 21.0.0, SVG Export Plug-In . SVG Version: 6.00 Build 0)  -->
<svg version="1.1" id="Layer_1" xmlns="http://www.w3.org/2000/svg" xmlns:xlink="http://www.w3.org/1999/xlink" x="0px" y="0px"
	 viewBox="0 0 316 177" style="enable-background:new 0 0 316 177;" xml:space="preserve">
<style type="text/css">
	.st0{fill:#404041;}
	.st1{fill:#3B376C;}
	.st2{fill:#CD3728;}
	.st3{fill:#CED1D2;}
	.st4{fill:#FFFFFF;}
	.st5{fill:#D6B329;}
	.st6{fill:#888888;}
</style>
<path class="st0" d="M130.2,64.9c9.3,0,12.4,3,12.4,8.5c0,3.5-2,6.2-5.9,6.9v0.2c5.4,0.3,8.5,3.9,8.5,8.5c0,5.9-3.5,10-13.8,10
	h-11.3V64.9H130.2z M126.9,78.3h2.8c4.4,0,5.9-1.5,5.9-4.1c0-2.6-1.5-4-5.9-4h-2.8V78.3z M126.9,93.6h4.5c4.6,0,6.4-1.6,6.4-4.9
	c0-3.3-1.9-4.9-6.7-4.9h-4.2V93.6z"/>
<path class="st0" d="M165.1,64.4L178.5,99H171l-3.4-9h-10.9l-3.4,9h-6.1l13.1-33.5L165.1,64.4z M158.6,84.8h7.1l-3.6-9.6L158.6,84.8
	z"/>
<path class="st0" d="M201.2,71.7c-2.2-1.3-5.2-2.1-7.6-2.1c-3.3,0-5.3,1.4-5.3,3.8c0,0.8,0.3,1.5,0.9,2.1c0.9,0.9,2.2,1.5,3.9,2.3
	l2.2,1c6.3,3,8.4,6.1,8.4,10.6c0,7-5.3,10.2-12.5,10.2c-3.6,0-6.7-0.8-9.8-2.2l0.4-6.2c2.8,1.7,6.2,2.9,9.3,2.9c3.4,0,6-1.3,6-4.1
	c0-2.8-2.3-4.2-5.4-5.6l-1.3-0.5c-4.3-1.9-9.2-4.1-9.2-10.1c0-6.4,5.6-9.6,11.5-9.6c3.2,0,6.5,0.8,8.9,2L201.2,71.7z"/>
<polygon class="st0" points="216.3,64.9 216.3,79.6 229.5,79.6 229.5,64.9 236.3,64.9 236.3,99 229.5,99 229.5,85 216.3,85 
	216.3,99 209.5,99 209.5,64.9 "/>
<polygon class="st0" points="250.4,64.9 250.4,80.4 261.7,64.9 268.4,64.9 257.2,80.3 269.5,99 262,99 252.8,85.1 250.4,85.1 
	250.4,99 243.6,99 243.6,64.9 "/>
<rect x="273.6" y="64.9" class="st0" width="6.8" height="34.1"/>
<path class="st0" d="M302.4,64.4L315.9,99h-7.5l-3.4-9h-10.9l-3.4,9h-6.1l13.1-33.5L302.4,64.4z M295.9,84.8h7.1l-3.6-9.6
	L295.9,84.8z"/>
<polygon class="st0" points="144.8,112.1 144.1,117.5 134.3,117.5 134.3,146.3 127.5,146.3 127.5,117.5 117.3,117.5 118,112.1 "/>
<rect x="149.2" y="112.1" class="st0" width="6.8" height="34.1"/>
<path class="st0" d="M172.2,112.1c10.4,0,14.9,3.3,14.9,10.3c0,4.1-1.7,7-5.4,9.3l8.1,14.6h-7.4l-6.6-12.8h-5.5v12.8h-6.8v-34.1
	H172.2z M170.2,128.3h3.4c4.1,0,6.3-1.5,6.3-5.4c0-3.9-2.1-5.4-6.3-5.4h-3.4V128.3z"/>
<path class="st0" d="M208.8,111.7l13.4,34.6h-7.5l-3.4-9h-10.9l-3.4,9H191l13.1-33.5L208.8,111.7z M202.3,132.1h7.1l-3.6-9.6
	L202.3,132.1z"/>
<polygon class="st0" points="231,112.1 247.8,134.9 247.8,112.1 253.6,112.1 253.6,146.3 248.6,146.3 232.2,124.7 232.2,146.3 
	226.3,146.3 226.3,112.1 "/>
<path class="st0" d="M281.8,112.1l-1.6,5.4h-12.5v9.4h11.5l-1.3,5.4h-10.2v8.6h14.8l-1.3,5.4h-20.4v-34.1H281.8z M269.5,108.6h-5.6
	v-5.4h5.6V108.6z M278.7,108.6h-5.6v-5.4h5.6V108.6z"/>
<path class="st1" d="M50.5,176.5c4.2-4.6,12.5-11.6,25.9-14c14.1-2.6,20.9-10.7,20.9-24.8V57H50.5V176.5z"/>
<path class="st2" d="M1.7,137.7c0,14.1,6.8,22.2,20.9,24.8c13.3,2.4,21.7,9.4,25.9,14V57H1.7V137.7z"/>
<polygon class="st3" points="12.8,58.8 12.8,58.8 12.8,58.8 "/>
<polygon class="st2" points="50.5,120.5 50.5,132.5 97.3,102.1 97.3,90.6 "/>
<path class="st4" d="M90.5,115.8c-0.6-0.5-1.3-1.1-1.9-1.6c-0.6-0.5-1.1-1-1.5-1.7c-0.3-0.6-0.6-1.3-0.6-1.8l0.1-0.8L85,111l0,0l0,0
	c0,0.1,0,0.1,0,0.2c0.2,1.5,0.9,2.7,2,3.7c0.3,0.3,0.6,0.5,0.9,0.7c0.7,0.5,1.4,1.1,2,1.7c0.5,0.6,0.8,1.4,0.6,2.2
	c-0.4,1.7-2.4,2.6-3.8,1.3c-0.5-0.5-1.1-0.9-1.6-1.3c0-0.3,0-0.7,0-1c0,0,0,0,0,0c0-0.7-0.1-1.4-0.3-1.9c0-0.1,0-0.1,0-0.1h0
	c-0.7-2.4-2.5-3.5-2.7-3.6l-12.8,8.3c0.2,2.8-0.9,3.5-2.1,4.2c-0.2,0.1-0.4,0.3-0.6,0.4l0,0c0,0,0,0-0.1,0c0,0-0.1,0.1-0.1,0.1
	c0,0,0,0,0,0c-0.3,0.2-0.5,0.4-0.8,0.5c-0.1,0-0.1,0-0.1,0c-0.2-0.2-0.4-0.3-0.7-0.4c-0.6-0.2-1.2,0-1.6,0.4c0.1,0,0.3,0.1,0.4,0.1
	c0.1,0.1,0.3,0.1,0.4,0.3c-0.8,0.2-1.3,0.7-1.4,1.5c0.1-0.1,0.3-0.1,0.4-0.2c0.1,0,0.3-0.1,0.4-0.1c0,0,0,0,0,0
	c-0.2,0.3-0.3,0.7-0.2,1c0.1,0.4,0.1,0.7,0.5,1c0.1-0.6,0.4-1,0.8-1.4c0.1,0.6,0.4,0.9,1,1.2c0-0.4,0.1-0.7,0.2-1.1
	c0-0.2,0.2-0.4,0.3-0.5l0,0c0.6-1.1,3.9-2.5,3.9-2.5c0.5-0.2,1-0.4,1.4-0.5c0.3-0.1,0.6-0.2,0.8-0.3c0.5-0.2,0.6-2.4,0.6-3.6
	c0-0.2,0-0.4,0-0.6c0-0.3,0.1-0.5,0.2-0.6c0,0,0,0,0,0c0.5-0.5,1.4-1,2-1c0.3,0,0.5,0.1,0.6,0.2c0.2,0.2,0.2,0.6-0.1,1.2
	c-0.1,0.2-0.3,0.5-0.5,0.8c-0.2,0.3-0.3,0.5-0.4,0.7c0,0-0.2,0.5-0.3,1.2c-0.3,1.7-0.8,4.6,0.2,5.9l0.8,0.9c1.9,2.1,2.7,3,2.7,4.8
	c0,1.3-0.5,2.5-1.1,3.5c0,0,0,0,0,0c-0.4,0.7-0.8,1.3-1.1,1.5c-0.2-0.4-0.6-0.7-1-0.8c0,0.2,0.1,0.3,0.1,0.5c0,0.2,0,0.3,0,0.5
	c-0.6-0.6-1.5-0.7-1.9-0.2c0.4,0.2,0.8,0.5,0.9,0.8c-0.9,0-1.4,0.6-1.5,1.1c0.6-0.2,1.2,0,1.8,0.2c-0.2,0.2-0.4,0.4-0.4,0.7
	c-0.1,0.3-0.1,0.5,0.1,0.7c0.1,0.1,0.1,0.1,0.2,0c0.6-0.6,1.3-0.9,2.1-1c0.2,0,0.3-0.1,0.5-0.2c0.2-0.2,0.4-0.4,0.6-0.6
	c0.6-0.6,1.2-1.3,1.7-2c0.1-0.2,0.2-0.3,0.3-0.5l0,0c0.1-0.1,0.1-0.2,0.2-0.3c0.4-1.5,1.6-2.9,2.2-3.6c0.1-0.1,0.2-0.2,0.3-0.3
	c0.1-0.1,0.1-0.2,0.1-0.3c0.3-1.6-0.7-2.7-1.1-3.1c-0.1,0-0.1-0.1-0.2-0.1c-1-1-0.5-2.1-0.2-2.6c0,0,0.1-0.1,0.2-0.2l0.2-0.1
	c0,0,0,0,0,0c0,0,0.1-0.1,0.2-0.1l0,0c0.4-0.4,1.1-1,1.7-1.8c0.2-0.4,0.5-0.7,0.7-1.1c0,0,0,0,0,0c0.3-0.4,0.5-0.8,0.7-1.1
	c0,0,0-0.1,0.1-0.1c0,0,0,0,0,0c0.4-0.8,0.7-1.6,0.8-2.3c0.2,0.1,0.3,0.1,0.4,0.2c0,0,0,0,0,0c0.2,0.2,0.3,0.3,0.5,0.4
	c1,0.9,2.1,1.2,3.3,0.9c2-0.4,3.5-2.4,3.2-4.4C91.9,117.6,91.4,116.6,90.5,115.8"/>
<path class="st4" d="M92.8,87c-2.3,2.4-3.8,2.4-3.8,2.4c0.1,0,0.1-0.1,0.2-0.1c0.1-0.1,0.3-0.1,0.4-0.2c1.1-0.6,3.1-1.8,3.2-3
	c-0.4,0.6-0.9,0.9-1.5,1.2c-0.6,0.3-1.1,0.6-1.7,0.9c0,0,0.1-0.2,1.6-1.1c0,0,0,0,0.1-0.1c0,0,0,0,0,0c0,0,0,0,0,0
	c0.3-0.2,1.2-0.6,1.5-1.2c0-0.1,0.1-0.2,0.1-0.3c0-0.1,0-0.1,0-0.1c0-0.2,0-0.4,0-0.5c-0.1-0.5-0.3-0.9-0.5-1.4c0,0,0,0-0.1,0
	c0,0.1-0.1,0.2-0.1,0.3c-0.1,0.3-0.3,0.5-0.5,0.6c-0.3,0.2-0.5,0.4-0.8,0.5c-0.6,0.4-1.2,0.7-1.8,1.1c-1,0.7-1.7,1.7-1.5,3
	c0.1,0.7-0.1,1.2-0.4,1.7c-0.9,1.9-0.8,3.7,0.2,5.5l1.3-0.9c-0.2-0.3-0.3-0.6-0.4-0.9c-0.3-1.2-0.1-2.3,0.4-3.3
	c0.1-0.3,0.2-0.3,0.5-0.2c1,0.4,1.8,0.2,2.6-0.4C93.1,89.5,93.3,88.1,92.8,87"/>
<path class="st4" d="M64.8,109.9c0.3-0.1,0.5-0.1,0.6-0.1c0.1,0,0.2-0.1,0.3-0.1c0,0,0.1,0,0.1,0c13.4-8.6,16-10.2,16.5-10.5l0,0
	c1.6-2,1.6-4.5,1.7-5.7c0-0.6,0-0.8,0.2-0.9c0.3-0.2,0.4-0.3,0.4-0.3c0,0,0-0.1-0.1-0.3c-0.4-1-0.1-2.4,0.3-2.8
	c0.1-0.1,0.1-0.1,0.1-0.2c0-0.2-0.2-0.3-0.3-0.5c-0.4-0.4-0.2-1-0.1-1.5c0.1-0.3,0.1-0.6,0.1-0.8c0-0.2-0.1-0.3-0.3-0.3
	c-0.2,0-0.4-0.1-0.4-0.3c0-0.1,0.1-0.3,0.2-0.4c0-0.1,0.1-0.1,0.1-0.2c0,0,0,0-0.1-0.1c-0.7-0.3-1-1.1-1-1.8c0.1-0.4-1-1.1-1.5-1.4
	c-0.4-0.3-0.6-0.3-0.6-0.5c-0.6-1.6-1.9-2.4-2.4-2.7c-0.1,0.6-0.4,2.2-0.4,2.3c0,0.1-0.1,0.2-0.2,0.2l0,0c-0.1,0-0.2-0.1-0.2-0.1
	c-0.3-0.9-1.2-1.7-1.7-2.2c0,0.9,0,2.1,0,2.3c0,0.1,0,0.1,0,0.1c0,0.1-0.1,0.1-0.2,0.1c0,0,0,0,0,0c-0.3-0.1-0.5-0.1-0.7-0.1
	c-0.7,0-1.1,0.4-1.4,0.9c-0.2,0.4-0.5,0.6-0.9,0.6c-0.3,0-0.6-0.1-0.9-0.3c-0.2-0.1-0.4-0.2-0.6-0.2c-0.2,0-0.4,0.2-0.6,0.3
	c-0.3,0.2-0.5,0.4-0.8,0.4c-0.1,0-0.3,0-0.4-0.1c-0.6-0.4-0.9-0.5-1.1-0.6c-0.1,0-0.2,0.1-0.2,0.1c-0.1,0.3,0.1,0.7,0.4,1.2
	c0.2,0.3,0.4,0.7,0.5,1c0,0.3,0.2,0.6,0.3,0.8c0.1,0.1,0.3,0.3,0.7,0.3c0.7-0.1,2-0.2,2.8-0.1c0,0,0.1,0,0.1,0c0,0,0.1,0,0.1,0
	c0,0,0,0,0.1,0c0.1,0,0.1,0,0.2,0c0.4,0.1,0.7,0.3,0.9,0.6c0.5,0.6,0.6,1.3,0.6,1.7c0,0.1,0,0.1-0.1,0.2c0,0-0.1,0.1-0.1,0.1
	c-0.1,0.1-0.2,0.1-0.3,0.2c-1,0.3-2.8-0.1-2.8-0.1l0,0c-0.5,0-1.1-0.2-1.3-0.4c-0.3-0.3-0.4-0.3-0.6-0.3c-0.1,0-0.2,0.2-0.2,0.2
	s0,0.2,0,0.4c0,0,0,0.1,0,0.1c0,0,0,0,0,0c0,0.1,0.1,0.2,0.2,0.2c0.1,0.1,0.2,0.1,0.3,0.1c0,0,0.1,0,0.1,0c0.1,0,0.2-0.1,0.3-0.1
	c0.1,0,0.1-0.1,0.2-0.1c0.3,0,0.3,0.2,0.4,1.1l0,0.3c0.1,0.5,0.3,0.8,0.7,0.8c0.3,0,0.7-0.2,0.9-0.4c0.1-0.2,0.1-0.3,0.1-0.3
	c0-0.1,0-0.3,0.1-0.4c0.2-0.3,0.6-0.5,0.9-0.5c0.3,0,0.5,0.1,0.6,0.4c0.3,0.5,1,0.7,1.6,0.9c0.2,0.1,0.4,0.1,0.5,0.2
	c0.2,0.1,0.5,0.4,0.4,0.7c0,0.1-0.1,0.2-0.2,0.2c0,0,0,0,0,0c0,0,0,0,0,0c0,0,0,0,0,0c-0.2,0-0.3,0.1-0.3,0.1h0
	c-5.1,2-8.2,4.6-8.7,7.2c0,0.1,0,0.2-0.1,0.3c0,0-0.1,0-0.1,0l0,0c-2.2-0.2-3.9-1.4-5-2.8c-0.8-1-1.9-3-2-3.2c0,0,0,0,0,0
	c-0.1-0.1-0.2-0.2-0.3-0.3c0,0-0.1-0.1-0.1-0.1c-0.1-0.1-0.1-0.1,0-0.2c0-0.1,0-0.2,0-0.3c0-0.4-0.2-0.6-0.4-0.9
	c-0.3-0.3-0.8-0.4-1.3-0.3c0.2,0.2,0.3,0.4,0.4,0.6c-0.6-0.4-1.1-0.3-1.6,0.1c0.4,0.1,0.7,0.3,0.9,0.7c-0.6-0.2-1.3,0.6-1.2,1.4
	c0,0,0.1,0,0.1-0.1c0.2-0.2,0.4-0.3,0.7-0.3c0.1,0,0.1,0,0.2,0c-0.1,0.5-0.1,0.9,0.2,1.2c0.2-0.2,0.3-0.3,0.5-0.5c0,0,0,0,0,0
	c1.5,1.9,2.8,5.3,2.9,5.6c0.2,0.8,0.4,1.4,0.5,1.7c0.4,1,3.3,1.5,4.1,1.5c0.1,0,0.5,0,0.6,0.3c0,0.1,0,0.1,0,0.2
	c0,0.1,0,0.9-0.4,1.5c0,0,0,0,0,0c-0.6,1.4-1.8,2.1-3.1,2.6c0,0,0,0,0,0c-3,1.2-6,0.6-6,0.6c-0.1,0-0.1,0-0.2,0
	c-0.1,0-0.2,0-0.2-0.1c-0.1-0.1-0.1-0.2-0.2-0.2c-0.3-0.2-0.7-0.3-1-0.2c-0.5,0.1-0.9,0.3-1.1,0.8c0.3,0,0.5,0,0.8,0.1
	c-0.7,0.3-1,0.8-1,1.5c0.4-0.2,0.7-0.4,1.2-0.3c-0.6,0.4-0.4,1.5,0.4,2c0,0,0-0.1,0-0.1c0-0.3,0.1-0.6,0.2-0.8
	c0-0.1,0.1-0.1,0.1-0.2c0.3,0.4,0.7,0.7,1.2,0.7c0-0.3-0.1-0.5-0.1-0.8C56.6,110,60.4,110.5,64.8,109.9 M75,83.8c-0.1,0-0.2,0-0.2,0
	l0,0c-0.3-0.1-0.7-0.3-0.7-0.5c0-0.1,0.2-0.2,0.6-0.4c0,0,0,0,0.1,0c0.2,0,0.6,0.1,1,0.7C75.6,83.7,75.3,83.8,75,83.8"/>
<path class="st4" d="M70.5,87.3L70.5,87.3C70.5,87.3,70.5,87.3,70.5,87.3c0.1,0,0.1,0,0.2,0l0,0c0,0,2.2-0.2,3.1,0.6
	c0,0-0.1-0.7-0.3-0.9c-0.4-0.9-2.4-0.6-2.4-0.6c-3.9,0.1-4.8-3.5-4.8-3.5S66.3,87.3,70.5,87.3"/>
<polygon class="st4" points="89.4,103.1 87.4,102.7 87.9,100.8 86.2,101.9 85.1,100.2 84.8,102.2 82.9,101.6 84,103.3 82.2,104.4 
	84.2,104.8 83.7,106.7 85.4,105.6 86.5,107.3 86.8,105.3 88.7,105.9 87.6,104.2 "/>
<polygon class="st4" points="65.6,118.4 63.7,118.1 64.2,116.2 62.5,117.3 61.4,115.6 61.1,117.5 59.1,117 60.2,118.7 58.5,119.8 
	60.5,120.1 59.9,122.1 61.7,121 62.8,122.7 63.1,120.7 65,121.3 63.9,119.5 "/>
<rect x="19.4" y="76.3" class="st4" width="0.9" height="7.5"/>
<rect x="23.4" y="76.3" class="st4" width="0.9" height="7.5"/>
<rect x="27.5" y="76.3" class="st4" width="0.9" height="7.5"/>
<rect x="31.5" y="76.3" class="st4" width="0.9" height="7.5"/>
<rect x="18.4" y="74.8" class="st4" width="14.9" height="1"/>
<path class="st4" d="M25.7,85.9v-1.7h-6.5l3.7,2.9C23.6,86.4,24.6,86,25.7,85.9"/>
<path class="st4" d="M18.8,94.9l3.5-2.8c-0.4-0.6-0.6-1.3-0.6-2.1c0,0,0-0.1,0-0.1h-2.9V94.9z"/>
<path class="st4" d="M25.6,94.1c-1.3-0.1-2.4-0.7-3.1-1.7l-3.5,2.7h6.6V94.1z"/>
<path class="st4" d="M18.8,89.5h2.9c0.1-0.8,0.4-1.5,0.9-2.1l-3.8-3V89.5z"/>
<path class="st4" d="M33,89.9h-3.1c0,0,0,0.1,0,0.1c0,0.8-0.2,1.5-0.6,2.2l3.7,2.9V89.9z"/>
<path class="st4" d="M29.1,92.5c-0.7,0.9-1.8,1.5-3.1,1.6v1.1h6.4L29.1,92.5z"/>
<path class="st4" d="M33,84.2h-6.9V86c1.2,0.1,2.2,0.7,2.9,1.5L33,84.2z"/>
<path class="st4" d="M33,84.7l-3.7,3.1c0.3,0.5,0.5,1.1,0.6,1.7H33V84.7z"/>
<path class="st4" d="M29.5,90c0-2-1.7-3.7-3.7-3.7c-2.1,0-3.7,1.7-3.7,3.7c0,2.1,1.7,3.7,3.7,3.7C27.9,93.8,29.5,92.1,29.5,90
	 M25.7,90l1.3-1.3l0.3,0.3l-1.1,1.1l1.6,1.4l-0.2,0.3l-1.9-1.6L25.7,90L25.7,90z"/>
<rect x="16.5" y="103.9" class="st4" width="18.8" height="1.9"/>
<rect x="17.8" y="95.7" class="st4" width="16.3" height="0.5"/>
<polygon class="st4" points="33.8,143.9 33.8,143.4 28,143.4 28,146.1 23.8,146.1 23.8,143.4 18,143.4 18,143.9 16.7,143.9 
	16.7,146.7 35.1,146.7 35.1,143.9 "/>
<polygon class="st4" points="25.9,64.8 20.3,74.4 31.5,74.4 "/>
<path class="st4" d="M25.8,98.8c-0.7,0-1.3,0.6-1.3,1.3v3.3h2.7v-3.3C27.2,99.4,26.6,98.8,25.8,98.8"/>
<path class="st4" d="M18.1,96.6v6.8h6.1v-3.3c0-0.9,0.8-1.7,1.7-1.7c0.9,0,1.7,0.8,1.7,1.7v3.3h6.2v-6.8H18.1z"/>
<path class="st4" d="M25.9,139.2c-0.9,0-1.7,0.7-1.7,1.6h0v4.9h3.4v-4.9C27.6,140,26.8,139.2,25.9,139.2"/>
<path class="st4" d="M18,106.1V143h5.8v-2.1h0c0-1.1,0.9-2,2.1-2c1.1,0,2.1,0.9,2.1,2h0v2.1h5.8v-36.9H18z M28.5,140.6
	c0-1.4-1.2-2.5-2.6-2.5c-1.4,0-2.6,1.1-2.6,2.5h-0.4c0-1.6,1.4-2.9,3-2.9c1.6,0,3,1.3,3,2.9H28.5z"/>
<path class="st5" d="M54.2,85.3c0,0-1.3-1.6,0-2.7c0.9-0.6,2.5,0.4,2.4,1.3c0.1,0.9,0.4,2-0.5,2.7c-0.4,0.2-1.1-0.3-0.6-0.8
	c0.3-0.2,0.5,0.2,0.8,0.1c0.1-0.2,0.3-1.3-0.3-1.7C55.5,83.8,54.2,83.8,54.2,85.3"/>
<path class="st5" d="M60.4,85.3c0,0,1.2-1.6,0-2.7c-0.9-0.6-2.5,0.4-2.5,1.3c-0.1,0.9-0.4,2,0.5,2.7c0.4,0.2,1.1-0.3,0.6-0.8
	c-0.3-0.2-0.5,0.2-0.8,0.1c-0.1-0.2-0.3-1.3,0.3-1.7C59.1,83.8,60.4,83.8,60.4,85.3"/>
<path class="st5" d="M57.3,87.4c0,0-0.3-0.4-0.2-1.5c0.1-1.1,0.1-2-0.1-2.4c-0.2-0.3-0.9-0.9-0.7-1.7c0.2-0.8,0.8-1.6,1-2.2"/>
<path class="st5" d="M57.3,87.4c0,0,0.3-0.4,0.2-1.5c-0.1-1.1-0.1-2,0.1-2.4c0.2-0.3,0.9-0.9,0.7-1.7c-0.2-0.8-0.8-1.6-1-2.2"/>
<rect x="55.9" y="84.9" class="st5" width="2.7" height="0.4"/>
<path class="st6" d="M13.8,35.7c0.3,1.5,0.5,2.3,0.8,3.9c2-0.5,4.1-0.9,6.1-1.3c-0.3-1.5-0.4-2.4-0.7-3.9
	C17.9,34.8,15.9,35.3,13.8,35.7"/>
<path class="st6" d="M85.8,35.9c-0.3,1.5-0.5,2.3-0.9,3.9c2,0.5,4,1,6.1,1.5c0.4-1.5,0.6-2.3,1-3.8C90,36.9,87.9,36.3,85.8,35.9"/>
<path class="st6" d="M7,37.4c0.4,1.5,0.6,2.3,1,3.8c2-0.5,4-1,6.1-1.5c-0.3-1.5-0.5-2.4-0.9-3.9C11.2,36.3,9.1,36.9,7,37.4"/>
<path class="st6" d="M4.8,34.6c0.8,0.9,1.2,1.4,2,2.3c12.2-3.3,24.2-5.2,36.7-6c0.1-0.1,0.2-0.2,0.3-0.2c1.5-1.2,3.5-1.8,5.5-1.8
	c2,0,3.9,0.6,5.5,1.8c0.1,0.1,0.2,0.2,0.3,0.2c12.8,0.7,24.9,2.7,37.3,6c0.8-0.9,1.2-1.4,2-2.3C64.3,26.3,34.7,26.3,4.8,34.6"/>
<path class="st6" d="M23,7.8c-0.3-2.2-0.5-3.3-0.8-5.5c-0.1,0-0.3,0-0.4,0.1c-0.6,0.1-1.2,0.2-1.7,0.3c-0.6,0.1-1.2,0.2-2,0.3
	c0.2,1.1,0.3,1.6,0.4,2.7c0,0.1-0.1,0.3-0.3,0.3c-1.9,0.3-2.8,0.5-4.7,0.9c-0.2,0-0.3,0-0.4-0.2c-0.2-1.1-0.3-1.6-0.5-2.7
	c-1.2,0.2-1.8,0.4-3,0.6c0.2,1.1,0.3,1.6,0.6,2.7c0,0.1-0.1,0.3-0.3,0.3C8.2,8.2,7.3,8.4,5.4,8.9c-0.2,0-0.4,0-0.4-0.2
	C4.8,7.6,4.7,7.1,4.4,6C3.6,6.2,3,6.4,2.4,6.5C1.9,6.7,1.4,6.8,0.8,7C0.7,7,0.5,7.1,0.4,7.1c0.5,2.1,0.8,3.2,1.4,5.3
	C8.8,10.6,15.8,9,23,7.8"/>
<path class="st6" d="M23,24.9c0.1,0.8,0.2,1.1,0.3,1.9c0.7-0.1,1.3-0.2,1.8-0.3l-1-6.3c-6.1,1-12.1,2.3-18,3.9c0,0,0,0,0,0
	c-0.1,0-0.1,0-0.2,0c0.4,1.5,0.6,2.3,1,3.8l0.1,0.5c0.2,0.7,0.3,1.1,0.5,1.8c1.6-0.4,2.4-0.6,3.9-1c-0.2-0.7-0.3-1.1-0.4-1.9
	c0-0.2-0.1-0.3-0.1-0.5c0.1,0,0.2,0,0.3-0.1c0,0,0,0,0,0c1.3-0.3,2.1-0.5,3.5-0.8c0,0,0,0,0,0c0.1,0,0.2,0,0.3-0.1
	c0,0.2,0.1,0.3,0.1,0.5c0.2,0.7,0.2,1.1,0.4,1.9c1.6-0.3,2.4-0.5,4-0.8c-0.1-0.7-0.2-1.1-0.3-1.9c0-0.2-0.1-0.3-0.1-0.5
	c1.5-0.3,2.4-0.4,3.8-0.7h0c0.1,0,0.2,0,0.3,0C23,24.6,23,24.7,23,24.9"/>
<path class="st6" d="M9.3,22.6L9.3,22.6l-0.9-3.8c-1.4,0.4-2.2,0.6-3.7,1c0.4,1.5,0.6,2.3,1,3.8C7.1,23.2,7.9,23,9.3,22.6
	C9.3,22.6,9.3,22.6,9.3,22.6"/>
<path class="st6" d="M20,20.3C20,20.3,20,20.4,20,20.3c1.5-0.2,2.4-0.4,4-0.6l-0.7-4c-1.5,0.2-2.4,0.4-3.9,0.7L20,20.3L20,20.3z"/>
<path class="st6" d="M92.8,28.7c-0.2,0.8-0.3,1.3-0.5,2.1c0,0.1-0.2,0.2-0.4,0.2c-1.8-0.5-2.7-0.7-4.5-1.2c-0.2,0-0.3-0.2-0.2-0.3
	c0.2-0.8,0.3-1.3,0.5-2.1c-1.1-0.3-1.7-0.4-2.9-0.7c-0.2,0.8-0.3,1.3-0.4,2.1c0,0.1-0.2,0.2-0.3,0.2c-1.8-0.4-2.7-0.6-4.5-0.9
	c-0.2,0-0.3-0.2-0.2-0.3c0.1-0.9,0.2-1.3,0.4-2.1c-1.2-0.2-1.7-0.3-2.9-0.5c0,0,0,0,0,0l0,0c0,0,0,0,0,0c-0.1,0.9-0.2,1.3-0.3,2.1
	c0,0.1-0.2,0.2-0.3,0.2c-1.8-0.3-2.7-0.5-4.6-0.7c-0.2,0-0.3-0.2-0.3-0.3c0.1-0.9,0.2-1.3,0.3-2.1c-1.2-0.2-1.7-0.2-2.9-0.4
	c-0.1,0.9-0.1,1.3-0.2,2.2c0,0.1-0.2,0.2-0.3,0.2c-1.8-0.2-2.8-0.3-4.6-0.5c-0.2,0-0.3-0.1-0.3-0.3c0.1-0.9,0.1-1.3,0.2-2.2
	c-0.6-0.1-0.9-0.1-1.5-0.1c-0.6,0-0.9-0.1-1.4-0.1v0c0,0,0,0,0,0v0c0,0,0,0,0,0c-0.1,0.9-0.1,1.3-0.1,2.2c0,0.1-0.1,0.3-0.3,0.2
	c-1.8-0.1-2.8-0.2-4.6-0.2c-0.2,0-0.3-0.1-0.3-0.3c0-0.8,0-1.3,0.1-2.1c0,0,0,0,0-0.1c-1.2,0-1.7-0.1-2.9-0.1c0,0,0,0,0,0
	c0,0,0,0,0,0c0,0,0,0,0,0l0,2.2c0,0.1-0.1,0.3-0.3,0.3c-1.8,0-2.8,0-4.6,0c-0.2,0-0.3-0.1-0.3-0.3c0-0.9,0-1.3,0-2.2
	c-1.2,0-1.8,0-2.9,0.1c0,0.9,0,1.3,0.1,2.2c0,0.1-0.1,0.3-0.3,0.3c-1.8,0.1-2.8,0.1-4.6,0.2c-0.2,0-0.3-0.1-0.3-0.2
	c-0.1-0.9-0.1-1.3-0.1-2.2c0,0,0,0,0,0c-0.6,0-0.9,0.1-1.4,0.1c-0.6,0-0.9,0.1-1.5,0.1c0.1,0.9,0.1,1.3,0.2,2.2
	c0,0.1-0.1,0.3-0.3,0.3c-1.8,0.2-2.8,0.3-4.6,0.5c-0.2,0-0.3-0.1-0.3-0.2c-0.1-0.9-0.1-1.3-0.2-2.2c-1.2,0.1-1.7,0.2-2.9,0.4
	c0.1,0.9,0.2,1.3,0.3,2.1c0,0.1-0.1,0.3-0.3,0.3c-1.8,0.3-2.7,0.4-4.6,0.7c-0.2,0-0.3-0.1-0.3-0.2c-0.1-0.9-0.2-1.3-0.3-2.1
	c-1.2,0.2-1.7,0.3-2.9,0.5c0.1,0.9,0.2,1.3,0.4,2.1c0,0.1-0.1,0.3-0.2,0.3c-1.8,0.4-2.7,0.5-4.5,0.9c-0.2,0-0.3,0-0.3-0.2
	c-0.2-0.8-0.3-1.3-0.4-2.1c-1.2,0.3-1.7,0.4-2.9,0.7c0.2,0.8,0.3,1.3,0.5,2.1c0,0.1-0.1,0.3-0.2,0.3c-1.8,0.4-2.7,0.7-4.5,1.2
	c-0.2,0-0.3,0-0.4-0.2c-0.2-0.8-0.3-1.3-0.5-2.1c-1.2,0.3-1.8,0.5-3,0.9c0.5,1.8,0.8,2.8,1.3,4.6c30.1-8.4,59.9-8.4,90,0
	c0.5-1.8,0.8-2.8,1.3-4.6C94.6,29.2,94,29,92.8,28.7"/>
<path class="st6" d="M65,36.3c2.1,0.2,4.1,0.5,6.1,0.8c0.2-1.6,0.3-2.5,0.5-3.9c-2.1-0.3-4.2-0.6-6.3-0.8
	C65.2,33.8,65.1,34.7,65,36.3"/>
<path class="st6" d="M68.2,41.2c2,0.3,4,0.6,6,0.9c0.2-1.5,0.4-2.4,0.6-3.9c-2-0.4-4.1-0.7-6.1-0.9C68.4,38.7,68.3,39.6,68.2,41.2"
	/>
<path class="st6" d="M71.7,37.2c2,0.3,4.1,0.7,6.1,1c0.3-1.6,0.4-2.4,0.7-3.9c-2.1-0.4-4.2-0.7-6.3-1.1C72,34.7,71.9,35.6,71.7,37.2
	"/>
<path class="st6" d="M57.5,44.5c2.1,0.2,4.1,0.4,6.1,0.6c0.1-1.5,0.2-2.5,0.4-3.9c-2.1-0.2-4.2-0.4-6.3-0.6
	C57.6,41.8,57.6,43,57.5,44.5"/>
<path class="st6" d="M54.4,31.1c-1.4-1.1-3.2-1.7-5.1-1.7c-1.9,0-3.7,0.6-5.1,1.7c-0.2,0.2-0.4,0.4-0.6,0.5
	c-1.1,1.1-1.9,2.5-2.2,3.9c0,0.2-0.1,0.3-0.1,0.5c-0.1,0.5-0.1,0.9-0.1,1.3c0.1,2.8,0.2,4.3,0.4,7.1c0.9,0,1.4-0.1,2.3-0.1
	c-0.1-2.9-0.2-4.3-0.3-7.2c0-0.4,0-0.8,0.1-1.3c0-0.2,0.1-0.4,0.2-0.6c0.7-2.2,2.9-3.7,5.4-3.7c2.5,0,4.6,1.5,5.4,3.7
	c0.1,0.2,0.1,0.4,0.2,0.6c0.1,0.4,0.1,0.9,0.1,1.3c-0.1,2.9-0.1,4.3-0.2,7.2c0.9,0,1.4,0.1,2.3,0.1c0.1-2.8,0.2-4.3,0.3-7.1
	c0-0.4,0-0.8-0.1-1.3c0-0.2,0-0.3-0.1-0.5c-0.3-1.5-1-2.8-2.2-3.9C54.8,31.5,54.6,31.3,54.4,31.1"/>
<path class="st6" d="M79,34.4c-0.3,1.5-0.4,2.3-0.7,3.9c2,0.4,4.1,0.8,6.1,1.3c0.3-1.5,0.5-2.4,0.8-3.9C83.2,35.3,81.1,34.8,79,34.4
	"/>
<path class="st6" d="M57.7,40.1c1.1,0.1,2.3,0.2,3.4,0.3c0.1-1.5,0.2-2.4,0.3-3.9c-1.2-0.1-2.4-0.2-3.6-0.3c0.1,0.5,0.1,0.9,0.1,1.3
	C57.8,38.4,57.8,39.3,57.7,40.1"/>
<path class="st6" d="M61.6,40.4c2,0.2,4,0.4,6,0.7c0.2-1.6,0.3-2.5,0.4-3.9c-2-0.3-4.1-0.5-6.1-0.7C61.8,38,61.8,38.9,61.6,40.4"/>
<path class="st6" d="M76.9,43.1c-2-0.4-3.9-0.7-5.9-1c-0.2,1.5-0.3,2.4-0.5,3.9c1.9,0.3,3.9,0.6,5.8,1
	C76.5,45.5,76.7,44.6,76.9,43.1"/>
<path class="st6" d="M88.9,50.5c-5.2-1.4-10.3-2.5-15.5-3.3c0,0,0,0,0,0c-8.9-1.5-16.1-2.3-24.2-2.3c-8-0.1-15.3,0.8-24.2,2.3
	c0,0-7.8,1.5-11.4,2.5c-1.2,0.3-2.4,0.6-3.6,0.9c-0.4,0.1-0.7,0.2-1.1,0.3c0.4,1.5,0.6,2.3,1,3.8c26.5-7.3,52.3-7.3,78.8,0
	c0.4-1.5,0.6-2.3,1-3.8C89.5,50.7,89.3,50.6,88.9,50.5"/>
<path class="st6" d="M64.1,45.2c1.9,0.2,3.9,0.5,5.8,0.8c0.2-1.6,0.3-2.5,0.5-3.9c-2-0.3-4-0.6-6-0.8C64.4,42.7,64.3,43.6,64.1,45.2
	"/>
<path class="st6" d="M81.9,39.6c-0.3,1.5-0.5,2.3-0.8,3.9c2.9,0.6,5.8,1.3,8.8,2.1c0.4-1.5,0.6-2.3,1-3.8
	C87.9,40.9,84.9,40.2,81.9,39.6"/>
<path class="st6" d="M81.4,39.5c-2-0.4-4.1-0.8-6.1-1.2c-0.2,1.5-0.4,2.3-0.6,3.9c2,0.3,4,0.7,5.9,1.2
	C80.9,41.8,81.1,40.9,81.4,39.5"/>
<path class="st6" d="M89.8,46.1c-2-0.5-3.9-1-5.9-1.5c-0.3,1.5-0.5,2.3-0.9,3.9c1.9,0.4,3.8,0.9,5.7,1.4
	C89.2,48.4,89.4,47.6,89.8,46.1"/>
<path class="st6" d="M83.4,44.5c-2-0.4-3.9-0.9-5.9-1.3c-0.3,1.5-0.4,2.3-0.7,3.9c1.9,0.4,3.8,0.8,5.8,1.2
	C82.8,46.8,83,45.9,83.4,44.5"/>
<path class="st6" d="M20.6,34.3c0.3,1.5,0.4,2.4,0.7,3.9c2-0.4,4.1-0.7,6.1-1.1c-0.2-1.6-0.3-2.5-0.5-3.9
	C24.8,33.6,22.7,33.9,20.6,34.3"/>
<path class="st6" d="M8.2,41.7l1,3.8c0.8-0.2,1.6-0.4,2.3-0.6c-0.4-1.5-0.6-2.4-0.9-3.8C9.8,41.3,9,41.5,8.2,41.7"/>
<path class="st6" d="M16,48.5c-0.3-1.5-0.5-2.4-0.9-3.9c-2,0.5-3.9,0.9-5.9,1.5c0.4,1.5,0.6,2.3,1,3.8C12.2,49.4,14.1,48.9,16,48.5"
	/>
<path class="st6" d="M28.6,46c-0.2-1.6-0.3-2.4-0.5-3.9c-2,0.3-4,0.6-5.9,1c0.3,1.5,0.4,2.3,0.7,3.9C24.7,46.7,26.7,46.3,28.6,46"/>
<path class="st6" d="M22.3,47.1c-0.3-1.5-0.4-2.4-0.7-3.9c-2,0.4-3.9,0.8-5.9,1.3c0.3,1.5,0.5,2.3,0.8,3.9
	C18.5,47.9,20.4,47.5,22.3,47.1"/>
<path class="st6" d="M34.9,45.2c-0.1-1.5-0.2-2.5-0.4-3.9c-2,0.2-4,0.5-6,0.8c0.2,1.5,0.3,2.4,0.5,3.9C31,45.7,33,45.4,34.9,45.2"/>
<path class="st6" d="M24.9,42.1c2-0.3,4-0.6,6-0.9c-0.2-1.6-0.3-2.5-0.5-3.9c-2,0.3-4.1,0.6-6.1,0.9C24.6,39.6,24.7,40.5,24.9,42.1"
	/>
<path class="st6" d="M27.4,33.2c0.2,1.5,0.3,2.4,0.5,3.9c2-0.3,4.1-0.6,6.1-0.8c-0.1-1.5-0.2-2.5-0.4-3.9
	C31.6,32.6,29.5,32.8,27.4,33.2"/>
<path class="st6" d="M24.4,42.2c-0.2-1.5-0.4-2.4-0.6-3.9c-2,0.4-4.1,0.8-6.1,1.2c0.3,1.5,0.5,2.3,0.8,3.9
	C20.4,42.9,22.4,42.5,24.4,42.2"/>
<path class="st6" d="M37.7,36.4c0.1,1.5,0.2,2.4,0.3,3.9c0.9-0.1,1.9-0.2,2.8-0.3c0-0.8-0.1-1.6-0.1-2.7c0-0.4,0-0.8,0-1.3
	C39.7,36.2,38.7,36.3,37.7,36.4"/>
<path class="st6" d="M35.4,45.1c1.9-0.2,3.7-0.4,5.6-0.6c-0.1-1.5-0.1-2.7-0.2-4c-1.9,0.2-3.8,0.4-5.7,0.6
	C35.2,42.7,35.3,43.6,35.4,45.1"/>
<path class="st6" d="M34.6,36.2c2-0.2,4.1-0.4,6.2-0.6c0,0,0,0,0-0.1c0.3-1.5,1-2.9,2.1-4c-2.9,0.2-5.8,0.4-8.6,0.7
	C34.4,33.7,34.5,34.6,34.6,36.2"/>
<path class="st6" d="M31.4,41.1c2-0.3,4-0.5,6-0.7c-0.1-1.5-0.2-2.4-0.3-3.9c-2.1,0.2-4.1,0.5-6.1,0.7
	C31.2,38.6,31.3,39.5,31.4,41.1"/>
<path class="st6" d="M11.1,41c0.4,1.5,0.6,2.3,0.9,3.8c2-0.5,3.9-1,5.9-1.4c-0.3-1.5-0.5-2.4-0.8-3.9C15.1,40,13.1,40.5,11.1,41"/>
<path class="st6" d="M57.7,35.5C57.7,35.5,57.7,35.5,57.7,35.5c2.3,0.2,4.5,0.5,6.7,0.7c0.1-1.5,0.2-2.5,0.4-3.9
	c-3-0.3-6.1-0.6-9.2-0.8C56.7,32.6,57.4,34,57.7,35.5"/>
<path class="st6" d="M83.7,17.2l-0.7,3.9l0,0c0,0,0,0,0,0c1.2,0.2,1.8,0.4,3,0.6l0.8-3.9C85.5,17.6,84.8,17.4,83.7,17.2"/>
<path class="st6" d="M86.4,13.2c-0.3,1.5-0.5,2.4-0.8,3.9c0.4,0.1,0.8,0.2,1.2,0.3l0.2-0.8c0.1-0.4,0.3-0.8,0.7-1
	c0.5-0.3,1.1-0.4,1.7-0.2c1.1,0.3,1.8,1.2,1.6,2.2l-0.2,0.8c1.4,0.4,2.2,0.6,3.7,1c0.4-1.5,0.6-2.3,1-3.8
	C92.4,14.6,89.4,13.8,86.4,13.2"/>
<path class="st6" d="M79.8,15.9l0.1-0.9c0.1-0.4,0.3-0.8,0.7-1c0.4-0.3,1-0.4,1.6-0.3c1.1,0.2,1.9,1.2,1.7,2.1l-0.2,0.9
	c0.5,0.1,0.9,0.2,1.2,0.3c0.3-1.5,0.5-2.4,0.8-3.9c-3-0.7-6.1-1.2-9.2-1.7c0,0-0.1,0-0.1,0l-0.7,3.9C77.4,15.5,78.3,15.6,79.8,15.9"
	/>
<path class="st6" d="M79.1,20.3L79.1,20.3l0.6-4c-1.5-0.3-2.4-0.4-4-0.7l-0.7,4C76.7,20,77.5,20.1,79.1,20.3
	C79.1,20.4,79.1,20.4,79.1,20.3"/>
<path class="st6" d="M76.1,8.4c0.2,1,0.3,1.4,0.5,2.4c6.4,1,12.8,2.4,19.1,4.1c0.5-0.8,0.8-1.2,1.4-2C90.1,11.1,83.2,9.6,76.1,8.4"
	/>
<path class="st6" d="M90.6,18.8l-0.9,3.8l0,0c0,0,0,0,0,0c1.4,0.4,2.2,0.6,3.7,1c0.4-1.5,0.6-2.3,1-3.8
	C92.9,19.4,92.1,19.2,90.6,18.8"/>
<path class="st6" d="M9.7,15.2c0.6-0.1,1.2-0.1,1.7,0.2c0.4,0.2,0.6,0.6,0.7,1l0.2,0.8c0.5-0.1,0.8-0.2,1.2-0.3
	c-0.3-1.5-0.5-2.4-0.8-3.9c-3,0.7-6.1,1.4-9.1,2.2c0.4,1.5,0.6,2.3,1,3.8c1.5-0.4,2.3-0.6,3.7-1l-0.2-0.8
	C7.9,16.5,8.6,15.5,9.7,15.2"/>
<path class="st6" d="M37.8,6.9c0.7,0.9,1.1,1.3,1.8,2.2c6.6-0.4,13.2-0.4,19.8,0c0.7-0.9,1.1-1.3,1.9-2.2
	C53.4,6.3,45.6,6.3,37.8,6.9"/>
<path class="st6" d="M98.3,7L98.3,7c-0.6-0.2-1.2-0.3-1.6-0.5c-0.6-0.2-1.2-0.3-2-0.5c-0.3,1.1-0.4,1.6-0.6,2.7
	c0,0.1-0.2,0.2-0.4,0.2c-1.8-0.5-2.8-0.7-4.6-1.1c-0.2,0-0.3-0.2-0.3-0.3c0.2-1.1,0.3-1.6,0.6-2.7c-1.2-0.3-1.8-0.4-3-0.6
	c-0.2,1.1-0.3,1.6-0.5,2.7c0,0.1-0.2,0.2-0.4,0.2c-1.9-0.4-2.8-0.6-4.7-0.9c-0.2,0-0.3-0.2-0.3-0.3c0.2-1.1,0.3-1.6,0.4-2.7
	c-0.6-0.1-1-0.2-1.5-0.3c-0.5-0.1-1-0.2-1.6-0.3c-0.3,0-0.6-0.1-1-0.1c-0.3,2.2-0.5,3.3-0.8,5.5c7.2,1.2,14.2,2.7,21.2,4.6
	c0.5-2.1,0.8-3.2,1.4-5.3C98.5,7.1,98.4,7,98.3,7"/>
<path class="st6" d="M93.3,24.1c-6-1.7-12.1-3-18.3-3.9l-1,6.3c0.5,0.1,1.1,0.2,1.8,0.3c0.1-0.8,0.2-1.1,0.3-1.9c0,0,0,0,0,0
	c0,0,0,0,0,0c0-0.2,0-0.3,0.1-0.5c1.6,0.3,2.5,0.4,4.1,0.7c0,0.2-0.1,0.3-0.1,0.5h0c-0.1,0.7-0.2,1.1-0.3,1.9c1.6,0.3,2.4,0.5,4,0.8
	c0.1-0.7,0.2-1.1,0.4-1.9l0,0c0-0.2,0.1-0.3,0.1-0.5c1.6,0.4,2.4,0.6,4.1,1c0,0.2-0.1,0.3-0.1,0.5c0,0,0,0,0,0c0,0,0,0,0,0
	c-0.2,0.7-0.3,1.1-0.4,1.9c1.6,0.4,2.4,0.6,3.9,1c0.2-0.7,0.3-1.1,0.5-1.8c0,0,0,0,0,0c0,0,0,0,0,0c0.1-0.2,0.1-0.3,0.1-0.5l0,0
	C92.7,26.5,92.9,25.7,93.3,24.1C93.3,24.2,93.3,24.2,93.3,24.1C93.3,24.1,93.3,24.1,93.3,24.1"/>
<path class="st6" d="M37.4,0.8L37.4,0.8c-0.1,0-0.2,0-0.2,0c0.1,2.2,0.2,3.3,0.3,5.5c8.1-0.6,16-0.6,24.1,0c0.1-2.2,0.2-3.3,0.3-5.5
	c-0.2,0-0.4,0-0.5,0v0c-0.3,0-0.5,0-0.7-0.1c-0.2,0-0.4,0-0.7-0.1C60,1.8,60,2.3,59.9,3.5c0,0.1-0.1,0.3-0.3,0.2
	c-1.3-0.1-1.9-0.1-3.2-0.2c-0.2,0-0.3-0.1-0.3-0.3c0-1.1,0.1-1.7,0.1-2.8c-0.8,0-1.2-0.1-1.9-0.1c0,1.1,0,1.7-0.1,2.8
	c0,0.1-0.1,0.3-0.3,0.3c-1.3,0-1.9-0.1-3.2-0.1c-0.2,0-0.3-0.1-0.3-0.3c0-1.1,0-1.7,0-2.8c-0.8,0-1.2,0-1.9,0l0,2.8
	c0,0.1-0.1,0.3-0.3,0.3c-1.3,0-1.9,0-3.2,0.1c-0.2,0-0.3-0.1-0.3-0.3c0-1.1,0-1.7-0.1-2.8c-0.8,0-1.2,0-1.9,0.1
	c0,1.1,0.1,1.7,0.1,2.8c0,0.1-0.1,0.3-0.3,0.3c-1.3,0.1-1.9,0.1-3.2,0.2c-0.2,0-0.3-0.1-0.3-0.2c-0.1-1.1-0.1-1.7-0.1-2.8
	c-0.3,0-0.6,0-0.9,0.1C37.9,0.8,37.7,0.8,37.4,0.8"/>
<path class="st6" d="M3.4,14.9c6.3-1.7,12.7-3.1,19.1-4.1c0.2-1,0.3-1.4,0.5-2.4c-7.1,1.2-14,2.7-21,4.5C2.6,13.7,2.9,14.1,3.4,14.9
	"/>
<path class="st6" d="M22.5,11.3c-3.1,0.5-6.1,1.1-9.2,1.7c0.3,1.5,0.5,2.4,0.8,3.9c0.4-0.1,0.8-0.2,1.2-0.3l-0.2-0.9
	c-0.2-0.9,0.6-1.9,1.7-2.1c0.6-0.1,1.2,0,1.6,0.3c0.4,0.3,0.6,0.6,0.7,1l0.1,0.9c1.5-0.3,2.4-0.4,3.9-0.7L22.5,11.3
	C22.5,11.3,22.5,11.3,22.5,11.3"/>
<path class="st6" d="M16.2,21.1L16.2,21.1l-0.8-3.9c-1.2,0.2-1.9,0.4-3.1,0.7l0.8,3.9C14.3,21.5,15,21.3,16.2,21.1
	C16.2,21.1,16.2,21.1,16.2,21.1"/>
<path class="st6" d="M52.3,9.3c0,1.5,0,2.4-0.1,3.9c0.2,0,0.5,0,0.8,0c0-0.8,0-1.2,0-2c0-0.1,0.1-0.3,0.3-0.3c1,0,1.5,0.1,2.5,0.1
	c0.2,0,0.3,0.1,0.3,0.3c0,0.8,0,1.2-0.1,2c1.4,0.1,2,0.1,3.4,0.2c-0.1-1.6-0.1-2.4-0.2-4C56.9,9.4,54.6,9.3,52.3,9.3"/>
<path class="st6" d="M39.3,18.1c1.4-0.1,2.1-0.2,3.5-0.2c-0.1-1.6-0.1-2.4-0.1-4c-1.3,0.1-1.9,0.1-3.2,0.2
	C39.4,15.7,39.4,16.5,39.3,18.1"/>
<path class="st6" d="M51.7,13.1c0-1.5,0-2.4,0-3.9c-1.6,0-3.1,0-4.7,0c0,1.5,0,2.4,0.1,3.9c0.2,0,0.5,0,0.8,0c0-0.8,0-1.2,0-2
	c0-0.1,0.1-0.3,0.3-0.3c1,0,1.5,0,2.5,0c0.2,0,0.3,0.1,0.3,0.3c0,0.8,0,1.2,0,2C51.2,13.1,51.5,13.1,51.7,13.1"/>
<path class="st6" d="M47.9,13.7c-0.8,0-1.2,0-2.1,0c0,1.6,0,2.4,0.1,4c0.8,0,1.2,0,2,0C47.9,16.1,47.9,15.3,47.9,13.7"/>
<path class="st6" d="M59.5,14.1c-1.4-0.1-2.1-0.2-3.5-0.2c-0.1,1.6-0.1,2.4-0.1,4c1.5,0.1,2.3,0.1,3.8,0.3
	C59.6,16.5,59.6,15.7,59.5,14.1"/>
<path class="st6" d="M53,13.7c-0.8,0-1.2,0-2.1,0c0,1.6,0,2.4,0,4c0.8,0,1.2,0,2,0C52.9,16.1,53,15.3,53,13.7"/>
<path class="st6" d="M59.7,18.6c-1.6-0.1-2.5-0.2-4.1-0.3c-1,0-1.5-0.1-2.4-0.1c-0.4,0-0.7,0-1,0c0,1.5,0,2.4-0.1,4
	c1.3,0,2.1,0,3.6,0.1c0,0.2,0,0.3,0,0.5h0c0,0.8,0,1.1-0.1,1.9c1.6,0.1,2.4,0.1,4,0.2c0-0.8,0.1-1.1,0.1-1.9c0,0,0,0,0,0
	c0,0,0,0,0,0c0-0.2,0-0.3,0-0.5C59.7,20.9,59.8,20.2,59.7,18.6"/>
<path class="st6" d="M51.6,22.2c0-1.6,0-2.5,0-4c-0.3,0-0.6,0-1,0c-1,0-1.5,0-2.4,0c-0.3,0-0.5,0-0.7,0c0,1.5,0,2.5,0.1,4.1h0
	c0,0.1,0,0.2,0,0.4c0,0.8,0,1.1,0,1.9c1.6,0,2.4,0,4,0c0-0.8,0-1.1,0-1.9h0h0L51.6,22.2L51.6,22.2z"/>
<path class="st6" d="M45.7,11.2c0,0.8,0,1.2,0,2c0.3,0,0.5,0,0.8,0c0-1.5,0-2.4-0.1-3.9c-2.2,0-4.5,0.1-6.8,0.2
	c-0.1,1.6-0.1,2.4-0.2,4c1.3-0.1,1.9-0.1,3.2-0.2c0-0.8,0-1.2-0.1-2c0-0.1,0.1-0.3,0.3-0.3c1-0.1,1.5-0.1,2.5-0.1
	C45.6,10.9,45.7,11.1,45.7,11.2"/>
<path class="st6" d="M46.9,18.2c-0.4,0-0.8,0-1.3,0c-1,0-1.5,0.1-2.4,0.1c-1.5,0.1-2.3,0.1-3.8,0.3c-0.1,1.6,0,2.3,0,3.9
	c0,0.2,0,0.3,0,0.5h0c0,0.8,0.1,1.1,0.1,1.9c1.6-0.1,2.4-0.1,4-0.2c0-0.8,0-1.1-0.1-1.9h0c0-0.2,0-0.3,0-0.5
	c1.5-0.1,2.3-0.1,3.6-0.1C46.9,20.6,46.9,19.7,46.9,18.2"/>
</svg>
